<svg width="34" height="34" viewBox="0 0 34 34" fill="none" xmlns="http://www.w3.org/2000/svg">
<path d="M15.8 28V25.5556H25.4V16.8778C25.4 14.4944 24.585 12.4727 22.955 10.8125C21.325 9.15231 19.34 8.32222 17 8.32222C14.66 8.32222 12.675 9.15231 11.045 10.8125C9.415 12.4727 8.6 14.4944 8.6 16.8778V24.3333H7.4C6.74 24.3333 6.175 24.094 5.705 23.6153C5.235 23.1366 5 22.5611 5 21.8889V19.4444C5 19.0167 5.105 18.6144 5.315 18.2375C5.525 17.8606 5.82 17.5602 6.2 17.3361L6.29 15.7167C6.45 14.3315 6.845 13.0481 7.475 11.8667C8.105 10.6852 8.895 9.65648 9.845 8.78056C10.795 7.90463 11.885 7.22222 13.115 6.73333C14.345 6.24444 15.64 6 17 6C18.36 6 19.65 6.24444 20.87 6.73333C22.09 7.22222 23.18 7.89954 24.14 8.76528C25.1 9.63102 25.89 10.6546 26.51 11.8361C27.13 13.0176 27.53 14.3009 27.71 15.6861L27.8 17.275C28.18 17.4583 28.475 17.7333 28.685 18.1C28.895 18.4667 29 18.8537 29 19.2611V22.0722C29 22.4796 28.895 22.8667 28.685 23.2333C28.475 23.6 28.18 23.875 27.8 24.0583V25.5556C27.8 26.2278 27.565 26.8032 27.095 27.2819C26.625 27.7606 26.06 28 25.4 28H15.8ZM13.4 19.4444C13.06 19.4444 12.775 19.3273 12.545 19.0931C12.315 18.8588 12.2 18.5685 12.2 18.2222C12.2 17.8759 12.315 17.5856 12.545 17.3514C12.775 17.1171 13.06 17 13.4 17C13.74 17 14.025 17.1171 14.255 17.3514C14.485 17.5856 14.6 17.8759 14.6 18.2222C14.6 18.5685 14.485 18.8588 14.255 19.0931C14.025 19.3273 13.74 19.4444 13.4 19.4444ZM20.6 19.4444C20.26 19.4444 19.975 19.3273 19.745 19.0931C19.515 18.8588 19.4 18.5685 19.4 18.2222C19.4 17.8759 19.515 17.5856 19.745 17.3514C19.975 17.1171 20.26 17 20.6 17C20.94 17 21.225 17.1171 21.455 17.3514C21.685 17.5856 21.8 17.8759 21.8 18.2222C21.8 18.5685 21.685 18.8588 21.455 19.0931C21.225 19.3273 20.94 19.4444 20.6 19.4444ZM9.83 17.55C9.69 15.3907 10.33 13.537 11.75 11.9889C13.17 10.4407 14.94 9.66667 17.06 9.66667C18.84 9.66667 20.405 10.2421 21.755 11.3931C23.105 12.544 23.92 14.0157 24.2 15.8083C22.38 15.788 20.705 15.2889 19.175 14.3111C17.645 13.3333 16.47 12.0093 15.65 10.3389C15.33 11.9685 14.655 13.4199 13.625 14.6931C12.595 15.9662 11.33 16.9185 9.83 17.55Z" fill="#C2410C"/>
</svg>
