<svg width="34" height="34" viewBox="0 0 34 34" fill="none" xmlns="http://www.w3.org/2000/svg">
<path d="M17 29C15.36 29 13.81 28.685 12.35 28.055C10.89 27.425 9.615 26.565 8.525 25.475C7.435 24.385 6.575 23.11 5.945 21.65C5.315 20.19 5 18.64 5 17C5 15.34 5.325 13.78 5.975 12.32C6.625 10.86 7.505 9.59 8.615 8.51C9.725 7.43 11.02 6.575 12.5 5.945C13.98 5.315 15.56 5 17.24 5C18.84 5 20.35 5.275 21.77 5.825C23.19 6.375 24.435 7.135 25.505 8.105C26.575 9.075 27.425 10.225 28.055 11.555C28.685 12.885 29 14.32 29 15.86C29 18.16 28.3 19.925 26.9 21.155C25.5 22.385 23.8 23 21.8 23H19.58C19.4 23 19.275 23.05 19.205 23.15C19.135 23.25 19.1 23.36 19.1 23.48C19.1 23.72 19.25 24.065 19.55 24.515C19.85 24.965 20 25.48 20 26.06C20 27.06 19.725 27.8 19.175 28.28C18.625 28.76 17.9 29 17 29ZM10.4 18.2C10.92 18.2 11.35 18.03 11.69 17.69C12.03 17.35 12.2 16.92 12.2 16.4C12.2 15.88 12.03 15.45 11.69 15.11C11.35 14.77 10.92 14.6 10.4 14.6C9.88 14.6 9.45 14.77 9.11 15.11C8.77 15.45 8.6 15.88 8.6 16.4C8.6 16.92 8.77 17.35 9.11 17.69C9.45 18.03 9.88 18.2 10.4 18.2ZM14 13.4C14.52 13.4 14.95 13.23 15.29 12.89C15.63 12.55 15.8 12.12 15.8 11.6C15.8 11.08 15.63 10.65 15.29 10.31C14.95 9.97 14.52 9.8 14 9.8C13.48 9.8 13.05 9.97 12.71 10.31C12.37 10.65 12.2 11.08 12.2 11.6C12.2 12.12 12.37 12.55 12.71 12.89C13.05 13.23 13.48 13.4 14 13.4ZM20 13.4C20.52 13.4 20.95 13.23 21.29 12.89C21.63 12.55 21.8 12.12 21.8 11.6C21.8 11.08 21.63 10.65 21.29 10.31C20.95 9.97 20.52 9.8 20 9.8C19.48 9.8 19.05 9.97 18.71 10.31C18.37 10.65 18.2 11.08 18.2 11.6C18.2 12.12 18.37 12.55 18.71 12.89C19.05 13.23 19.48 13.4 20 13.4ZM23.6 18.2C24.12 18.2 24.55 18.03 24.89 17.69C25.23 17.35 25.4 16.92 25.4 16.4C25.4 15.88 25.23 15.45 24.89 15.11C24.55 14.77 24.12 14.6 23.6 14.6C23.08 14.6 22.65 14.77 22.31 15.11C21.97 15.45 21.8 15.88 21.8 16.4C21.8 16.92 21.97 17.35 22.31 17.69C22.65 18.03 23.08 18.2 23.6 18.2ZM17 26.6C17.18 26.6 17.325 26.55 17.435 26.45C17.545 26.35 17.6 26.22 17.6 26.06C17.6 25.78 17.45 25.45 17.15 25.07C16.85 24.69 16.7 24.12 16.7 23.36C16.7 22.52 16.99 21.85 17.57 21.35C18.15 20.85 18.86 20.6 19.7 20.6H21.8C23.12 20.6 24.25 20.215 25.19 19.445C26.13 18.675 26.6 17.48 26.6 15.86C26.6 13.44 25.675 11.425 23.825 9.815C21.975 8.205 19.78 7.4 17.24 7.4C14.52 7.4 12.2 8.33 10.28 10.19C8.36 12.05 7.4 14.32 7.4 17C7.4 19.66 8.335 21.925 10.205 23.795C12.075 25.665 14.34 26.6 17 26.6Z" fill="#C2410C"/>
</svg>
