<svg width="34" height="34" viewBox="0 0 34 34" fill="none" xmlns="http://www.w3.org/2000/svg">
<path d="M17 29C13.9333 29 11.2611 27.9833 8.98333 25.95C6.70556 23.9167 5.4 21.3778 5.06667 18.3333H7.8C8.11111 20.6444 9.13889 22.5556 10.8833 24.0667C12.6278 25.5778 14.6667 26.3333 17 26.3333C19.6 26.3333 21.8056 25.4278 23.6167 23.6167C25.4278 21.8056 26.3333 19.6 26.3333 17C26.3333 14.4 25.4278 12.1944 23.6167 10.3833C21.8056 8.57222 19.6 7.66667 17 7.66667C15.4667 7.66667 14.0333 8.02222 12.7 8.73333C11.3667 9.44444 10.2444 10.4222 9.33333 11.6667H13V14.3333H5V6.33333H7.66667V9.46667C8.8 8.04444 10.1833 6.94444 11.8167 6.16667C13.45 5.38889 15.1778 5 17 5C18.6667 5 20.2278 5.31667 21.6833 5.95C23.1389 6.58333 24.4056 7.43889 25.4833 8.51667C26.5611 9.59444 27.4167 10.8611 28.05 12.3167C28.6833 13.7722 29 15.3333 29 17C29 18.6667 28.6833 20.2278 28.05 21.6833C27.4167 23.1389 26.5611 24.4056 25.4833 25.4833C24.4056 26.5611 23.1389 27.4167 21.6833 28.05C20.2278 28.6833 18.6667 29 17 29ZM20.7333 22.6L15.6667 17.5333V10.3333H18.3333V16.4667L22.6 20.7333L20.7333 22.6Z" fill="#C2410C"/>
</svg>
