<svg width="34" height="34" viewBox="0 0 34 34" fill="none" xmlns="http://www.w3.org/2000/svg">
<path d="M6.33098 29V25.1093H10.457L7.06302 14.2804C6.46408 13.9561 5.97051 13.4806 5.5823 12.8538C5.1941 12.227 5 11.5569 5 10.8436C5 9.76287 5.3882 8.84425 6.16461 8.08773C6.94101 7.33121 7.88379 6.95296 8.99294 6.95296C9.85808 6.95296 10.6289 7.19612 11.3055 7.68245C11.9821 8.16879 12.4535 8.79021 12.7197 9.54673H16.9788V8.24984C16.9788 7.88239 17.1064 7.57438 17.3615 7.32581C17.6166 7.07724 17.9327 6.95296 18.3098 6.95296C18.5095 6.95296 18.7036 6.99619 18.8921 7.08264C19.0807 7.1691 19.2415 7.29879 19.3746 7.47171L21.6373 5.39669C21.8369 5.20216 22.0754 5.07788 22.3527 5.02384C22.6299 4.9698 22.9017 5.00763 23.1679 5.13732L28.3587 7.47171C28.6249 7.6014 28.8079 7.79053 28.9077 8.0391C29.0076 8.28767 29.002 8.53083 28.8911 8.76859C28.758 9.02797 28.5639 9.19549 28.3088 9.27114C28.0537 9.34679 27.8041 9.33058 27.5601 9.2225L22.7686 7.08264L19.6408 9.93579V11.7514L22.7686 14.5397L27.5601 12.3999C27.8041 12.2918 28.0592 12.281 28.3254 12.3675C28.5916 12.4539 28.7802 12.616 28.8911 12.8538C29.0242 13.1132 29.0353 13.3617 28.9244 13.5995C28.8135 13.8373 28.6249 14.021 28.3587 14.1507L23.1679 16.5499C22.9017 16.6796 22.6299 16.7174 22.3527 16.6634C22.0754 16.6093 21.8369 16.4851 21.6373 16.2905L19.3746 14.2155C19.2415 14.3452 19.0807 14.4641 18.8921 14.5722C18.7036 14.6802 18.5095 14.7343 18.3098 14.7343C17.9327 14.7343 17.6166 14.61 17.3615 14.3614C17.1064 14.1128 16.9788 13.8048 16.9788 13.4374V12.1405H12.7197C12.6531 12.3134 12.581 12.4755 12.5034 12.6268C12.4258 12.7781 12.3204 12.9402 12.1873 13.1132L18.8422 25.1093H23.6337V29H6.33098ZM8.99294 12.1405C9.37005 12.1405 9.68616 12.0162 9.94127 11.7676C10.1964 11.5191 10.3239 11.2111 10.3239 10.8436C10.3239 10.4762 10.1964 10.1682 9.94127 9.91958C9.68616 9.67101 9.37005 9.54673 8.99294 9.54673C8.61583 9.54673 8.29972 9.67101 8.04462 9.91958C7.78951 10.1682 7.66196 10.4762 7.66196 10.8436C7.66196 11.2111 7.78951 11.5191 8.04462 11.7676C8.29972 12.0162 8.61583 12.1405 8.99294 12.1405ZM13.1855 25.1093H15.7809L10.0577 14.7343C10.0577 14.7343 10.0355 14.7343 9.99118 14.7343C9.94681 14.7343 9.92463 14.7343 9.92463 14.7343L13.1855 25.1093Z" fill="#C2410C"/>
</svg>
