<svg width="24" height="24" viewBox="0 0 24 24" fill="none" xmlns="http://www.w3.org/2000/svg">
<path d="M12 24C18.6274 24 24 18.6274 24 12C24 5.3726 18.6274 0 12 0C5.3726 0 0 5.3726 0 12C0 18.6274 5.3726 24 12 24Z" fill="url(#paint0_linear_237_8149)"/>
<path d="M17.4444 12C17.4444 10.4833 16.9162 9.19676 15.8597 8.14028C14.8032 7.0838 13.5167 6.55556 12 6.55556V5C12.9722 5 13.8829 5.18472 14.7319 5.55417C15.581 5.92361 16.3199 6.42269 16.9486 7.05139C17.5773 7.68009 18.0764 8.41898 18.4458 9.26806C18.8153 10.1171 19 11.0278 19 12H17.4444ZM14.3333 12C14.3333 11.3519 14.1065 10.8009 13.6528 10.3472C13.1991 9.89352 12.6481 9.66667 12 9.66667V8.11111C13.0759 8.11111 13.9931 8.49028 14.7514 9.24861C15.5097 10.0069 15.8889 10.9241 15.8889 12H14.3333ZM18.1833 19C16.563 19 14.962 18.6468 13.3806 17.9403C11.7991 17.2338 10.3602 16.2324 9.06389 14.9361C7.76759 13.6398 6.7662 12.2009 6.05972 10.6194C5.35324 9.03796 5 7.43704 5 5.81667C5 5.58333 5.07778 5.38889 5.23333 5.23333C5.38889 5.07778 5.58333 5 5.81667 5H8.96667C9.14815 5 9.31018 5.06157 9.45278 5.18472C9.59537 5.30787 9.67963 5.4537 9.70556 5.62222L10.2111 8.34444C10.237 8.55185 10.2306 8.72685 10.1917 8.86944C10.1528 9.01204 10.0815 9.13519 9.97778 9.23889L8.09167 11.1444C8.35093 11.6241 8.6588 12.0875 9.01528 12.5347C9.37176 12.9819 9.76389 13.413 10.1917 13.8278C10.5935 14.2296 11.0148 14.6023 11.4556 14.9458C11.8963 15.2894 12.363 15.6037 12.8556 15.8889L14.6833 14.0611C14.8 13.9444 14.9523 13.8569 15.1403 13.7986C15.3282 13.7403 15.513 13.7241 15.6944 13.75L18.3778 14.2944C18.5593 14.3463 18.7083 14.4403 18.825 14.5764C18.9417 14.7125 19 14.8648 19 15.0333V18.1833C19 18.4167 18.9222 18.6111 18.7667 18.7667C18.6111 18.9222 18.4167 19 18.1833 19ZM7.35278 9.66667L8.63611 8.38333L8.30556 6.55556H6.575C6.63981 7.08704 6.73056 7.61204 6.84722 8.13056C6.96389 8.64907 7.13241 9.16111 7.35278 9.66667ZM14.3139 16.6278C14.8194 16.8481 15.3347 17.0231 15.8597 17.1528C16.3847 17.2824 16.913 17.3667 17.4444 17.4056V15.6944L15.6167 15.325L14.3139 16.6278Z" fill="white"/>
<defs>
<linearGradient id="paint0_linear_237_8149" x1="9.0014" y1="1.0008" x2="3.0014" y2="15" gradientUnits="userSpaceOnUse">
<stop stop-color="#F48765"/>
<stop offset="1" stop-color="#761B14"/>
</linearGradient>
</defs>
</svg>
