<svg width="30" height="30" viewBox="0 0 30 30" fill="none" xmlns="http://www.w3.org/2000/svg">
<path d="M15 15C15.6187 15 16.1484 14.7748 16.5891 14.3244C17.0297 13.874 17.25 13.3325 17.25 12.7C17.25 12.0675 17.0297 11.526 16.5891 11.0756C16.1484 10.6252 15.6187 10.4 15 10.4C14.3813 10.4 13.8516 10.6252 13.4109 11.0756C12.9703 11.526 12.75 12.0675 12.75 12.7C12.75 13.3325 12.9703 13.874 13.4109 14.3244C13.8516 14.7748 14.3813 15 15 15ZM15 23.4525C17.2875 21.3058 18.9844 19.3556 20.0906 17.6019C21.1969 15.8481 21.75 14.2908 21.75 12.93C21.75 10.8408 21.0984 9.13021 19.7953 7.79812C18.4922 6.46604 16.8938 5.8 15 5.8C13.1063 5.8 11.5078 6.46604 10.2047 7.79812C8.90156 9.13021 8.25 10.8408 8.25 12.93C8.25 14.2908 8.80312 15.8481 9.90937 17.6019C11.0156 19.3556 12.7125 21.3058 15 23.4525ZM15 26.5C11.9812 23.8742 9.72656 21.4352 8.23594 19.1831C6.74531 16.931 6 14.8467 6 12.93C6 10.055 6.90469 7.76458 8.71406 6.05875C10.5234 4.35292 12.6188 3.5 15 3.5C17.3812 3.5 19.4766 4.35292 21.2859 6.05875C23.0953 7.76458 24 10.055 24 12.93C24 14.8467 23.2547 16.931 21.7641 19.1831C20.2734 21.4352 18.0188 23.8742 15 26.5Z" fill="#C2410C"/>
</svg>
