<svg width="24" height="24" viewBox="0 0 24 24" fill="none" xmlns="http://www.w3.org/2000/svg">
<path d="M18.0077 0H5.99234C2.68286 0 0 2.68286 0 5.99234V18.0077C0 21.3171 2.68286 24 5.99234 24H18.0077C21.3171 24 24 21.3171 24 18.0077V5.99234C24 2.68286 21.3171 0 18.0077 0Z" fill="url(#paint0_linear_22_459)"/>
<path d="M18.0077 0H5.99234C2.68286 0 0 2.68286 0 5.99234V18.0077C0 21.3171 2.68286 24 5.99234 24H18.0077C21.3171 24 24 21.3171 24 18.0077V5.99234C24 2.68286 21.3171 0 18.0077 0Z" fill="url(#paint1_radial_22_459)"/>
<path fill-rule="evenodd" clip-rule="evenodd" d="M12.1971 21.08C10.3969 21.08 9.56037 20.8172 8.10623 19.766C7.18643 20.9486 4.27377 21.8728 4.14674 20.2916C4.14674 19.1047 3.88394 18.1017 3.5861 17.0067C3.23133 15.6576 2.82837 14.1553 2.82837 11.9785C2.82837 6.77947 7.09447 2.86816 12.1489 2.86816C17.2078 2.86816 21.1717 6.97219 21.1717 12.0267C21.1886 17.003 17.1734 21.0535 12.1971 21.08ZM12.2716 7.362C9.81004 7.23499 7.8916 8.9388 7.46675 11.6106C7.11635 13.8225 7.73831 16.5161 8.26828 16.6563C8.52232 16.7176 9.1618 16.2008 9.56037 15.8022C10.2194 16.2575 10.9869 16.5309 11.7854 16.595C14.336 16.7177 16.5153 14.7759 16.6866 12.2282C16.7863 9.675 14.8225 7.5125 12.2716 7.36639V7.362Z" fill="white"/>
<defs>
<linearGradient id="paint0_linear_22_459" x1="2.82833" y1="18.2529" x2="24" y2="12" gradientUnits="userSpaceOnUse">
<stop stop-color="#44CCFF"/>
<stop offset="0.662" stop-color="#5533EE"/>
<stop offset="1" stop-color="#9933DD"/>
</linearGradient>
<radialGradient id="paint1_radial_22_459" cx="0" cy="0" r="1" gradientUnits="userSpaceOnUse" gradientTransform="translate(-0.570979 -10.5404) rotate(51.356) scale(29.1244 12)">
<stop stop-color="#0000FF"/>
<stop offset="1" stop-opacity="0"/>
</radialGradient>
</defs>
</svg>
