<svg width="30" height="30" viewBox="0 0 30 30" fill="none" xmlns="http://www.w3.org/2000/svg">
<path d="M22 15C22 13.05 21.3208 11.3958 19.9625 10.0375C18.6042 8.67917 16.95 8 15 8V6C16.25 6 17.4208 6.2375 18.5125 6.7125C19.6042 7.1875 20.5542 7.82917 21.3625 8.6375C22.1708 9.44583 22.8125 10.3958 23.2875 11.4875C23.7625 12.5792 24 13.75 24 15H22ZM18 15C18 14.1667 17.7083 13.4583 17.125 12.875C16.5417 12.2917 15.8333 12 15 12V10C16.3833 10 17.5625 10.4875 18.5375 11.4625C19.5125 12.4375 20 13.6167 20 15H18ZM22.95 24C20.8667 24 18.8083 23.5458 16.775 22.6375C14.7417 21.7292 12.8917 20.4417 11.225 18.775C9.55833 17.1083 8.27083 15.2583 7.3625 13.225C6.45417 11.1917 6 9.13333 6 7.05C6 6.75 6.1 6.5 6.3 6.3C6.5 6.1 6.75 6 7.05 6H11.1C11.3333 6 11.5417 6.07917 11.725 6.2375C11.9083 6.39583 12.0167 6.58333 12.05 6.8L12.7 10.3C12.7333 10.5667 12.725 10.7917 12.675 10.975C12.625 11.1583 12.5333 11.3167 12.4 11.45L9.975 13.9C10.3083 14.5167 10.7042 15.1125 11.1625 15.6875C11.6208 16.2625 12.125 16.8167 12.675 17.35C13.1917 17.8667 13.7333 18.3458 14.3 18.7875C14.8667 19.2292 15.4667 19.6333 16.1 20L18.45 17.65C18.6 17.5 18.7958 17.3875 19.0375 17.3125C19.2792 17.2375 19.5167 17.2167 19.75 17.25L23.2 17.95C23.4333 18.0167 23.625 18.1375 23.775 18.3125C23.925 18.4875 24 18.6833 24 18.9V22.95C24 23.25 23.9 23.5 23.7 23.7C23.5 23.9 23.25 24 22.95 24ZM9.025 12L10.675 10.35L10.25 8H8.025C8.10833 8.68333 8.225 9.35833 8.375 10.025C8.525 10.6917 8.74167 11.35 9.025 12ZM17.975 20.95C18.625 21.2333 19.2875 21.4583 19.9625 21.625C20.6375 21.7917 21.3167 21.9 22 21.95V19.75L19.65 19.275L17.975 20.95Z" fill="#C2410C"/>
</svg>
