<svg width="356" height="101" viewBox="0 0 356 101" fill="none" xmlns="http://www.w3.org/2000/svg">
<g clip-path="url(#clip0_20_226)">
<path d="M44.6076 0L4.75488 23.3337L44.2894 46.6371L66.7135 33.6276V32.7687L67.7926 33.2025L83.854 23.8803V22.8435L44.6076 0ZM44.7279 38.2605L24.1352 26.2835L33.2235 20.7743L53.9624 32.7861L44.7279 38.2605ZM63.6569 25.0559L43.5672 13.3608L45.9274 11.9423L66.0644 23.6287L63.6569 25.0559Z" fill="url(#paint0_linear_20_226)"/>
<path d="M89 41.9392V32.604L49.8352 55.5126V101L89 78.252V44.0735L58.4334 61.846L58.442 59.382L89 41.9436V41.9392ZM58.442 72.0358L75.0064 62.3622V70.5522L58.442 80.2865V72.0401V72.0358Z" fill="url(#paint1_linear_20_226)"/>
<path d="M83.854 23.8844V29.489L67.7926 38.7809L66.7135 38.6594V39.4055L44.3066 52.3759L4.76348 29.155L4.75488 23.3335L44.2894 46.6412L66.7135 33.6317V32.7728L67.7926 33.2066L83.854 23.8844Z" fill="#F68B6B"/>
<path d="M67.7925 33.2067V38.781L66.7134 38.6595V33.6622V32.7729L67.7925 33.2067Z" fill="#962D1F"/>
<path d="M45.9272 7.69092V11.9421L66.0642 23.6285L69.7013 21.4682L45.9272 7.69092Z" fill="url(#paint2_linear_20_226)"/>
<path d="M45.9274 7.69092L39.9517 11.2567L43.5672 13.3606L45.9274 11.9421V7.69092Z" fill="#761B14"/>
<path d="M33.2234 15.0181V20.7745L53.9623 32.7862L58.8589 29.8841L33.2234 15.0181Z" fill="url(#paint3_linear_20_226)"/>
<path d="M33.2234 15.0181L19.0364 23.3209L24.1351 26.288L33.2234 20.7745V15.0181Z" fill="#761B14"/>
<path d="M44.2894 46.6412V52.3759L4.76348 29.155L4.75488 23.3335L44.2894 46.6412Z" fill="url(#paint4_linear_20_226)"/>
<path d="M0 32.001L4.7634 29.1553L15.8594 35.6708L11.1691 38.5209L0 32.001Z" fill="#C14427"/>
<path d="M28.6492 48.9404L33.5372 46.0601L44.3065 52.3761L39.3066 55.1827L28.6492 48.9404Z" fill="#C14427"/>
<path d="M15.8593 35.6709L22.8711 61.551L19.578 68.7346L11.1689 38.5209L15.8593 35.6709Z" fill="url(#paint5_linear_20_226)"/>
<path d="M0 32.001V78.1522L8.16829 82.95V57.9114L15.6831 87.2922L21.1172 90.4459L31.1728 67.9624V96.2023L39.3239 101V55.1829L28.6492 48.9406L19.5781 68.7346L11.1691 38.5209L0 32.001Z" fill="url(#paint6_linear_20_226)"/>
<path d="M8.16821 57.9111V82.9497L13.5206 79.9131V78.8416L8.16821 57.9111Z" fill="url(#paint7_linear_20_226)"/>
<path d="M21.1172 90.4459L26.7447 87.2879L31.1728 78.6077V67.9624L21.1172 90.4459Z" fill="url(#paint8_linear_20_226)"/>
<path d="M39.3066 55.1826L44.3065 52.376V98.1021L39.3238 101L39.3066 55.1826Z" fill="url(#paint9_linear_20_226)"/>
<path d="M44.3066 52.3762L83.8541 29.4893L89.0001 32.6082L49.8353 55.5168L44.3066 52.3762Z" fill="#C14427"/>
<path d="M75.0063 62.362V70.5477L80.0363 73.4975V59.4209L75.0063 62.362Z" fill="#761B14"/>
<path d="M75.0063 70.5479L58.4419 80.2822V86.108L80.0363 73.4976L75.0063 70.5479Z" fill="url(#paint10_linear_20_226)"/>
<path d="M44.3066 52.376L49.8353 55.5166V101L44.3066 98.1021V52.376Z" fill="#761B14"/>
<path d="M89 44.0732L87.0353 43.0625L58.4419 59.3775L58.4333 61.8414L89 44.0732Z" fill="#761B14"/>
</g>
<path d="M110.138 36.9091H112.899V45.142H113.008L118.665 36.9091H121.087V50H118.32V41.7607H118.224L112.535 50H110.138V36.9091ZM134.503 36.9091V50H131.767V39.1591H126.474V50H123.738V36.9091H134.503ZM141.304 50V36.9091H149.991V39.1911H144.072V41.7479H146.2C147.236 41.7479 148.128 41.9162 148.878 42.2528C149.633 42.5852 150.214 43.0561 150.623 43.6655C151.032 44.2749 151.237 44.9929 151.237 45.8196C151.237 46.642 151.032 47.3686 150.623 47.9993C150.214 48.6257 149.633 49.1158 148.878 49.4695C148.128 49.8232 147.236 50 146.2 50H141.304ZM144.072 47.7756H146.2C146.694 47.7756 147.112 47.6861 147.453 47.5071C147.794 47.3239 148.052 47.0831 148.226 46.7848C148.405 46.4822 148.495 46.152 148.495 45.794C148.495 45.2741 148.297 44.8352 147.9 44.4773C147.508 44.1151 146.942 43.9339 146.2 43.9339H144.072V47.7756ZM154.85 41.7479H157.969C159.009 41.7479 159.904 41.9162 160.654 42.2528C161.408 42.5852 161.99 43.0561 162.399 43.6655C162.808 44.2749 163.011 44.9929 163.006 45.8196C163.011 46.642 162.808 47.3686 162.399 47.9993C161.99 48.6257 161.408 49.1158 160.654 49.4695C159.904 49.8232 159.009 50 157.969 50H153.08V36.9091H155.841V47.7756H157.969C158.468 47.7756 158.888 47.6861 159.229 47.5071C159.57 47.3239 159.827 47.0831 160.002 46.7848C160.181 46.4822 160.268 46.152 160.264 45.794C160.268 45.2741 160.072 44.8352 159.676 44.4773C159.284 44.1151 158.715 43.9339 157.969 43.9339H154.85V41.7479ZM166.835 36.9091V50H164.074V36.9091H166.835ZM177.032 50L172.826 44.4197H171.88V50H169.112V36.9091H171.88V42.1378H172.436L176.783 36.9091H180.228L175.121 42.9815L180.465 50H177.032ZM193.148 43.4545C193.148 44.8821 192.877 46.0966 192.336 47.098C191.799 48.0994 191.066 48.8643 190.137 49.3928C189.213 49.9169 188.173 50.179 187.018 50.179C185.855 50.179 184.811 49.9148 183.886 49.3864C182.961 48.858 182.23 48.093 181.694 47.0916C181.157 46.0902 180.888 44.8778 180.888 43.4545C180.888 42.027 181.157 40.8125 181.694 39.8111C182.23 38.8097 182.961 38.0469 183.886 37.5227C184.811 36.9943 185.855 36.7301 187.018 36.7301C188.173 36.7301 189.213 36.9943 190.137 37.5227C191.066 38.0469 191.799 38.8097 192.336 39.8111C192.877 40.8125 193.148 42.027 193.148 43.4545ZM190.342 43.4545C190.342 42.5298 190.203 41.75 189.926 41.1151C189.654 40.4801 189.268 39.9986 188.77 39.6705C188.271 39.3423 187.687 39.1783 187.018 39.1783C186.349 39.1783 185.765 39.3423 185.267 39.6705C184.768 39.9986 184.38 40.4801 184.103 41.1151C183.831 41.75 183.694 42.5298 183.694 43.4545C183.694 44.3793 183.831 45.1591 184.103 45.794C184.38 46.429 184.768 46.9105 185.267 47.2386C185.765 47.5668 186.349 47.7308 187.018 47.7308C187.687 47.7308 188.271 47.5668 188.77 47.2386C189.268 46.9105 189.654 46.429 189.926 45.794C190.203 45.1591 190.342 44.3793 190.342 43.4545ZM195.198 50V36.9091H200.44C201.403 36.9091 202.206 37.0518 202.85 37.3374C203.493 37.6229 203.977 38.0192 204.301 38.5263C204.624 39.0291 204.786 39.6087 204.786 40.2649C204.786 40.7763 204.684 41.2259 204.48 41.6136C204.275 41.9972 203.994 42.3125 203.636 42.5597C203.282 42.8026 202.877 42.9751 202.421 43.0774V43.2053C202.92 43.2266 203.387 43.3672 203.821 43.6271C204.26 43.8871 204.616 44.2514 204.889 44.7202C205.161 45.1847 205.298 45.7386 205.298 46.3821C205.298 47.0767 205.125 47.6967 204.78 48.2422C204.439 48.7834 203.934 49.2116 203.265 49.527C202.596 49.8423 201.771 50 200.791 50H195.198ZM197.966 47.7372H200.222C200.994 47.7372 201.556 47.5902 201.91 47.2962C202.264 46.9979 202.441 46.6016 202.441 46.1072C202.441 45.745 202.353 45.4254 202.178 45.1484C202.004 44.8714 201.754 44.6541 201.431 44.4964C201.111 44.3388 200.73 44.2599 200.286 44.2599H197.966V47.7372ZM197.966 42.3871H200.018C200.397 42.3871 200.734 42.321 201.028 42.1889C201.326 42.0526 201.561 41.8608 201.731 41.6136C201.906 41.3665 201.993 41.0703 201.993 40.7251C201.993 40.2521 201.825 39.8707 201.488 39.581C201.156 39.2912 200.683 39.1463 200.069 39.1463H197.966V42.3871ZM218.649 41.4922H215.849C215.798 41.13 215.694 40.8082 215.536 40.527C215.379 40.2415 215.176 39.9986 214.929 39.7983C214.682 39.598 214.396 39.4446 214.072 39.3381C213.753 39.2315 213.406 39.1783 213.031 39.1783C212.353 39.1783 211.763 39.3466 211.26 39.6832C210.757 40.0156 210.367 40.5014 210.09 41.1406C209.813 41.7756 209.675 42.5469 209.675 43.4545C209.675 44.3878 209.813 45.1719 210.09 45.8068C210.371 46.4418 210.763 46.9212 211.266 47.245C211.769 47.5689 212.351 47.7308 213.011 47.7308C213.382 47.7308 213.725 47.6818 214.04 47.5838C214.36 47.4858 214.643 47.343 214.891 47.1555C215.138 46.9638 215.342 46.7315 215.504 46.4588C215.67 46.1861 215.786 45.875 215.849 45.5256L218.649 45.5384C218.577 46.1392 218.396 46.7188 218.106 47.277C217.82 47.831 217.435 48.3274 216.949 48.7663C216.467 49.201 215.892 49.5462 215.223 49.8018C214.558 50.0533 213.806 50.179 212.967 50.179C211.799 50.179 210.755 49.9148 209.835 49.3864C208.918 48.858 208.194 48.093 207.661 47.0916C207.133 46.0902 206.869 44.8778 206.869 43.4545C206.869 42.027 207.137 40.8125 207.674 39.8111C208.211 38.8097 208.94 38.0469 209.86 37.5227C210.781 36.9943 211.816 36.7301 212.967 36.7301C213.725 36.7301 214.428 36.8366 215.076 37.0497C215.728 37.2628 216.305 37.5739 216.808 37.983C217.311 38.3878 217.72 38.8842 218.036 39.4723C218.355 40.0604 218.56 40.7337 218.649 41.4922ZM228.554 50L224.348 44.4197H223.402V50H220.634V36.9091H223.402V42.1378H223.958L228.304 36.9091H231.75L226.642 42.9815L231.986 50H228.554ZM233.378 36.9091H236.139V45.142H236.248L241.905 36.9091H244.328V50H241.56V41.7607H241.464L235.775 50H233.378V36.9091ZM246.614 36.9091H249.376V45.142H249.484L255.141 36.9091H257.564V50H254.796V41.7607H254.7L249.011 50H246.614V36.9091ZM253.364 33.483H255.263C255.259 34.2585 254.971 34.8828 254.4 35.3558C253.833 35.8288 253.066 36.0653 252.099 36.0653C251.127 36.0653 250.358 35.8288 249.791 35.3558C249.224 34.8828 248.941 34.2585 248.941 33.483H250.827C250.822 33.777 250.916 34.0412 251.108 34.2756C251.304 34.5099 251.634 34.6271 252.099 34.6271C252.55 34.6271 252.874 34.5121 253.07 34.282C253.266 34.0518 253.364 33.7855 253.364 33.483ZM264.017 36.9091H267.43L271.035 45.7045H271.189L274.794 36.9091H278.207V50H275.522V41.4794H275.414L272.026 49.9361H270.198L266.81 41.4474H266.701V50H264.017V36.9091ZM282.028 50.1662C281.606 50.1662 281.244 50.017 280.941 49.7188C280.643 49.4162 280.494 49.054 280.494 48.6321C280.494 48.2145 280.643 47.8565 280.941 47.5582C281.244 47.2599 281.606 47.1108 282.028 47.1108C282.437 47.1108 282.795 47.2599 283.102 47.5582C283.409 47.8565 283.562 48.2145 283.562 48.6321C283.562 48.9134 283.49 49.1712 283.345 49.4055C283.204 49.6357 283.019 49.821 282.789 49.9616C282.558 50.098 282.305 50.1662 282.028 50.1662ZM285.849 50V36.9091H291.09C292.053 36.9091 292.857 37.0518 293.5 37.3374C294.143 37.6229 294.627 38.0192 294.951 38.5263C295.275 39.0291 295.437 39.6087 295.437 40.2649C295.437 40.7763 295.335 41.2259 295.13 41.6136C294.925 41.9972 294.644 42.3125 294.286 42.5597C293.933 42.8026 293.528 42.9751 293.072 43.0774V43.2053C293.57 43.2266 294.037 43.3672 294.472 43.6271C294.911 43.8871 295.266 44.2514 295.539 44.7202C295.812 45.1847 295.948 45.7386 295.948 46.3821C295.948 47.0767 295.776 47.6967 295.43 48.2422C295.089 48.7834 294.585 49.2116 293.915 49.527C293.246 49.8423 292.422 50 291.442 50H285.849ZM288.616 47.7372H290.873C291.644 47.7372 292.207 47.5902 292.56 47.2962C292.914 46.9979 293.091 46.6016 293.091 46.1072C293.091 45.745 293.004 45.4254 292.829 45.1484C292.654 44.8714 292.405 44.6541 292.081 44.4964C291.761 44.3388 291.38 44.2599 290.937 44.2599H288.616V47.7372ZM288.616 42.3871H290.668C291.048 42.3871 291.384 42.321 291.678 42.1889C291.977 42.0526 292.211 41.8608 292.381 41.6136C292.556 41.3665 292.643 41.0703 292.643 40.7251C292.643 40.2521 292.475 39.8707 292.138 39.581C291.806 39.2912 291.333 39.1463 290.719 39.1463H288.616V42.3871ZM299.29 50.1662C298.868 50.1662 298.506 50.017 298.203 49.7188C297.905 49.4162 297.756 49.054 297.756 48.6321C297.756 48.2145 297.905 47.8565 298.203 47.5582C298.506 47.2599 298.868 47.1108 299.29 47.1108C299.699 47.1108 300.057 47.2599 300.363 47.5582C300.67 47.8565 300.824 48.2145 300.824 48.6321C300.824 48.9134 300.751 49.1712 300.606 49.4055C300.466 49.6357 300.28 49.821 300.05 49.9616C299.82 50.098 299.567 50.1662 299.29 50.1662Z" fill="#1A1C1C"/>
<path d="M109.355 61.995V60.7273H115.328V61.995H113.102V68H111.582V61.995H109.355ZM123.163 64.3636C123.163 65.1567 123.013 65.8314 122.712 66.3878C122.414 66.9441 122.007 67.3691 121.49 67.6626C120.977 67.9538 120.399 68.0994 119.757 68.0994C119.111 68.0994 118.531 67.9527 118.017 67.6591C117.504 67.3655 117.098 66.9406 116.799 66.3842C116.501 65.8279 116.352 65.1544 116.352 64.3636C116.352 63.5705 116.501 62.8958 116.799 62.3395C117.098 61.7831 117.504 61.3594 118.017 61.0682C118.531 60.7746 119.111 60.6278 119.757 60.6278C120.399 60.6278 120.977 60.7746 121.49 61.0682C122.007 61.3594 122.414 61.7831 122.712 62.3395C123.013 62.8958 123.163 63.5705 123.163 64.3636ZM121.604 64.3636C121.604 63.8499 121.527 63.4167 121.373 63.0639C121.222 62.7112 121.007 62.4437 120.73 62.2614C120.453 62.0791 120.129 61.9879 119.757 61.9879C119.386 61.9879 119.061 62.0791 118.784 62.2614C118.507 62.4437 118.292 62.7112 118.138 63.0639C117.987 63.4167 117.911 63.8499 117.911 64.3636C117.911 64.8774 117.987 65.3106 118.138 65.6634C118.292 66.0161 118.507 66.2836 118.784 66.4659C119.061 66.6482 119.386 66.7393 119.757 66.7393C120.129 66.7393 120.453 66.6482 120.73 66.4659C121.007 66.2836 121.222 66.0161 121.373 65.6634C121.527 65.3106 121.604 64.8774 121.604 64.3636ZM124.802 68V60.7273H127.671C128.223 60.7273 128.693 60.8326 129.081 61.0433C129.469 61.2517 129.765 61.5417 129.969 61.9134C130.175 62.2827 130.278 62.7088 130.278 63.1918C130.278 63.6747 130.174 64.1009 129.965 64.4702C129.757 64.8395 129.455 65.1271 129.06 65.3331C128.667 65.5391 128.191 65.642 127.632 65.642H125.803V64.4098H127.384C127.68 64.4098 127.923 64.3589 128.115 64.2571C128.309 64.1529 128.454 64.0097 128.548 63.8274C128.646 63.6428 128.694 63.4309 128.694 63.1918C128.694 62.9503 128.646 62.7396 128.548 62.5597C128.454 62.3774 128.309 62.2365 128.115 62.1371C127.921 62.0353 127.675 61.9844 127.377 61.9844H126.34V68H124.802ZM136.603 60.7273V61.995H133.314V68H131.777V60.7273H136.603ZM144.438 64.3636C144.438 65.1567 144.288 65.8314 143.987 66.3878C143.689 66.9441 143.282 67.3691 142.766 67.6626C142.252 67.9538 141.674 68.0994 141.033 68.0994C140.387 68.0994 139.807 67.9527 139.293 67.6591C138.779 67.3655 138.373 66.9406 138.075 66.3842C137.776 65.8279 137.627 65.1544 137.627 64.3636C137.627 63.5705 137.776 62.8958 138.075 62.3395C138.373 61.7831 138.779 61.3594 139.293 61.0682C139.807 60.7746 140.387 60.6278 141.033 60.6278C141.674 60.6278 142.252 60.7746 142.766 61.0682C143.282 61.3594 143.689 61.7831 143.987 62.3395C144.288 62.8958 144.438 63.5705 144.438 64.3636ZM142.879 64.3636C142.879 63.8499 142.802 63.4167 142.649 63.0639C142.497 62.7112 142.283 62.4437 142.006 62.2614C141.729 62.0791 141.405 61.9879 141.033 61.9879C140.661 61.9879 140.337 62.0791 140.06 62.2614C139.783 62.4437 139.567 62.7112 139.414 63.0639C139.262 63.4167 139.186 63.8499 139.186 64.3636C139.186 64.8774 139.262 65.3106 139.414 65.6634C139.567 66.0161 139.783 66.2836 140.06 66.4659C140.337 66.6482 140.661 66.7393 141.033 66.7393C141.405 66.7393 141.729 66.6482 142.006 66.4659C142.283 66.2836 142.497 66.0161 142.649 65.6634C142.802 65.3106 142.879 64.8774 142.879 64.3636ZM146.077 68V60.7273H148.989C149.524 60.7273 149.971 60.8066 150.328 60.9652C150.686 61.1238 150.954 61.344 151.134 61.6257C151.314 61.9051 151.404 62.227 151.404 62.5916C151.404 62.8757 151.347 63.1255 151.234 63.3409C151.12 63.554 150.964 63.7292 150.765 63.8665C150.568 64.0014 150.344 64.0973 150.09 64.1541V64.2251C150.367 64.237 150.626 64.3151 150.868 64.4595C151.112 64.6039 151.309 64.8063 151.461 65.0668C151.612 65.3248 151.688 65.6326 151.688 65.9901C151.688 66.3759 151.592 66.7204 151.401 67.0234C151.211 67.3241 150.931 67.562 150.559 67.7372C150.187 67.9124 149.729 68 149.185 68H146.077ZM147.615 66.7429H148.869C149.297 66.7429 149.61 66.6612 149.806 66.4979C150.003 66.3321 150.101 66.112 150.101 65.8374C150.101 65.6361 150.052 65.4586 149.955 65.3047C149.858 65.1508 149.72 65.0301 149.54 64.9425C149.362 64.8549 149.15 64.8111 148.904 64.8111H147.615V66.7429ZM147.615 63.7706H148.755C148.966 63.7706 149.153 63.7339 149.316 63.6605C149.482 63.5848 149.612 63.4782 149.707 63.3409C149.804 63.2036 149.852 63.0391 149.852 62.8473C149.852 62.5845 149.759 62.3726 149.572 62.2116C149.387 62.0507 149.124 61.9702 148.783 61.9702H147.615V63.7706ZM159.872 64.3636C159.872 65.1567 159.722 65.8314 159.421 66.3878C159.123 66.9441 158.715 67.3691 158.199 67.6626C157.686 67.9538 157.108 68.0994 156.466 68.0994C155.82 68.0994 155.24 67.9527 154.726 67.6591C154.213 67.3655 153.807 66.9406 153.508 66.3842C153.21 65.8279 153.061 65.1544 153.061 64.3636C153.061 63.5705 153.21 62.8958 153.508 62.3395C153.807 61.7831 154.213 61.3594 154.726 61.0682C155.24 60.7746 155.82 60.6278 156.466 60.6278C157.108 60.6278 157.686 60.7746 158.199 61.0682C158.715 61.3594 159.123 61.7831 159.421 62.3395C159.722 62.8958 159.872 63.5705 159.872 64.3636ZM158.313 64.3636C158.313 63.8499 158.236 63.4167 158.082 63.0639C157.931 62.7112 157.716 62.4437 157.439 62.2614C157.162 62.0791 156.838 61.9879 156.466 61.9879C156.095 61.9879 155.77 62.0791 155.493 62.2614C155.216 62.4437 155.001 62.7112 154.847 63.0639C154.696 63.4167 154.62 63.8499 154.62 64.3636C154.62 64.8774 154.696 65.3106 154.847 65.6634C155.001 66.0161 155.216 66.2836 155.493 66.4659C155.77 66.6482 156.095 66.7393 156.466 66.7393C156.838 66.7393 157.162 66.6482 157.439 66.4659C157.716 66.2836 157.931 66.0161 158.082 65.6634C158.236 65.3106 158.313 64.8774 158.313 64.3636ZM164.881 63.7635V64.9638H161.564V63.7635H164.881ZM172.881 60.7273V68H171.361V61.9773H168.421V68H166.901V60.7273H172.881ZM174.845 68V60.7273H177.714C178.266 60.7273 178.736 60.8326 179.124 61.0433C179.512 61.2517 179.808 61.5417 180.012 61.9134C180.218 62.2827 180.321 62.7088 180.321 63.1918C180.321 63.6747 180.217 64.1009 180.008 64.4702C179.8 64.8395 179.498 65.1271 179.103 65.3331C178.71 65.5391 178.234 65.642 177.675 65.642H175.846V64.4098H177.427C177.723 64.4098 177.966 64.3589 178.158 64.2571C178.352 64.1529 178.497 64.0097 178.591 63.8274C178.689 63.6428 178.737 63.4309 178.737 63.1918C178.737 62.9503 178.689 62.7396 178.591 62.5597C178.497 62.3774 178.352 62.2365 178.158 62.1371C177.964 62.0353 177.718 61.9844 177.42 61.9844H176.383V68H174.845ZM188.503 64.3636C188.503 65.1567 188.353 65.8314 188.052 66.3878C187.754 66.9441 187.346 67.3691 186.83 67.6626C186.317 67.9538 185.739 68.0994 185.097 68.0994C184.451 68.0994 183.871 67.9527 183.357 67.6591C182.844 67.3655 182.438 66.9406 182.139 66.3842C181.841 65.8279 181.692 65.1544 181.692 64.3636C181.692 63.5705 181.841 62.8958 182.139 62.3395C182.438 61.7831 182.844 61.3594 183.357 61.0682C183.871 60.7746 184.451 60.6278 185.097 60.6278C185.739 60.6278 186.317 60.7746 186.83 61.0682C187.346 61.3594 187.754 61.7831 188.052 62.3395C188.353 62.8958 188.503 63.5705 188.503 64.3636ZM186.944 64.3636C186.944 63.8499 186.867 63.4167 186.713 63.0639C186.562 62.7112 186.347 62.4437 186.07 62.2614C185.793 62.0791 185.469 61.9879 185.097 61.9879C184.726 61.9879 184.401 62.0791 184.124 62.2614C183.847 62.4437 183.632 62.7112 183.478 63.0639C183.326 63.4167 183.251 63.8499 183.251 64.3636C183.251 64.8774 183.326 65.3106 183.478 65.6634C183.632 66.0161 183.847 66.2836 184.124 66.4659C184.401 66.6482 184.726 66.7393 185.097 66.7393C185.469 66.7393 185.793 66.6482 186.07 66.4659C186.347 66.2836 186.562 66.0161 186.713 65.6634C186.867 65.3106 186.944 64.8774 186.944 64.3636ZM190.142 60.7273H191.676V65.3011H191.736L194.879 60.7273H196.225V68H194.687V63.4226H194.634L191.474 68H190.142V60.7273ZM200.641 68.0994C200.111 68.0994 199.638 68.0083 199.224 67.826C198.812 67.6413 198.487 67.388 198.248 67.0661C198.011 66.7417 197.889 66.3677 197.882 65.9439H199.43C199.44 66.1214 199.498 66.2777 199.604 66.4126C199.713 66.5452 199.857 66.6482 200.037 66.7216C200.217 66.795 200.42 66.8317 200.645 66.8317C200.879 66.8317 201.086 66.7902 201.266 66.7074C201.446 66.6245 201.587 66.5097 201.689 66.3629C201.79 66.2161 201.841 66.0469 201.841 65.8551C201.841 65.661 201.787 65.4893 201.678 65.3402C201.571 65.1887 201.417 65.0703 201.216 64.9851C201.017 64.8999 200.781 64.8572 200.506 64.8572H199.828V63.728H200.506C200.738 63.728 200.943 63.6877 201.12 63.6072C201.3 63.5268 201.44 63.4155 201.539 63.2734C201.639 63.129 201.689 62.9609 201.689 62.7692C201.689 62.5869 201.645 62.4271 201.557 62.2898C201.472 62.1501 201.351 62.0412 201.195 61.9631C201.041 61.8849 200.861 61.8459 200.655 61.8459C200.447 61.8459 200.256 61.8838 200.083 61.9595C199.911 62.0329 199.772 62.1383 199.668 62.2756C199.564 62.4129 199.508 62.5739 199.501 62.7585H198.027C198.034 62.3395 198.154 61.9702 198.386 61.6506C198.618 61.331 198.931 61.0812 199.324 60.9013C199.719 60.719 200.165 60.6278 200.662 60.6278C201.164 60.6278 201.603 60.719 201.98 60.9013C202.356 61.0836 202.649 61.3298 202.857 61.6399C203.068 61.9477 203.172 62.2933 203.169 62.6768C203.172 63.084 203.045 63.4238 202.789 63.696C202.536 63.9683 202.206 64.1411 201.799 64.2145V64.2713C202.334 64.34 202.741 64.5258 203.02 64.8288C203.302 65.1295 203.442 65.5059 203.439 65.9581C203.442 66.3724 203.322 66.7405 203.081 67.0625C202.842 67.3845 202.511 67.6378 202.09 67.8224C201.668 68.0071 201.185 68.0994 200.641 68.0994ZM205.087 68V60.7273H207.999C208.534 60.7273 208.98 60.8066 209.338 60.9652C209.695 61.1238 209.964 61.344 210.144 61.6257C210.324 61.9051 210.414 62.227 210.414 62.5916C210.414 62.8757 210.357 63.1255 210.243 63.3409C210.13 63.554 209.974 63.7292 209.775 63.8665C209.578 64.0014 209.353 64.0973 209.1 64.1541V64.2251C209.377 64.237 209.636 64.3151 209.878 64.4595C210.122 64.6039 210.319 64.8063 210.471 65.0668C210.622 65.3248 210.698 65.6326 210.698 65.9901C210.698 66.3759 210.602 66.7204 210.41 67.0234C210.221 67.3241 209.94 67.562 209.569 67.7372C209.197 67.9124 208.739 68 208.194 68H205.087ZM206.625 66.7429H207.878C208.307 66.7429 208.619 66.6612 208.816 66.4979C209.012 66.3321 209.111 66.112 209.111 65.8374C209.111 65.6361 209.062 65.4586 208.965 65.3047C208.868 65.1508 208.729 65.0301 208.55 64.9425C208.372 64.8549 208.16 64.8111 207.914 64.8111H206.625V66.7429ZM206.625 63.7706H207.765C207.975 63.7706 208.162 63.7339 208.326 63.6605C208.492 63.5848 208.622 63.4782 208.716 63.3409C208.814 63.2036 208.862 63.0391 208.862 62.8473C208.862 62.5845 208.769 62.3726 208.581 62.2116C208.397 62.0507 208.134 61.9702 207.793 61.9702H206.625V63.7706ZM218.882 64.3636C218.882 65.1567 218.731 65.8314 218.431 66.3878C218.132 66.9441 217.725 67.3691 217.209 67.6626C216.695 67.9538 216.118 68.0994 215.476 68.0994C214.83 68.0994 214.25 67.9527 213.736 67.6591C213.222 67.3655 212.816 66.9406 212.518 66.3842C212.22 65.8279 212.071 65.1544 212.071 64.3636C212.071 63.5705 212.22 62.8958 212.518 62.3395C212.816 61.7831 213.222 61.3594 213.736 61.0682C214.25 60.7746 214.83 60.6278 215.476 60.6278C216.118 60.6278 216.695 60.7746 217.209 61.0682C217.725 61.3594 218.132 61.7831 218.431 62.3395C218.731 62.8958 218.882 63.5705 218.882 64.3636ZM217.323 64.3636C217.323 63.8499 217.246 63.4167 217.092 63.0639C216.94 62.7112 216.726 62.4437 216.449 62.2614C216.172 62.0791 215.848 61.9879 215.476 61.9879C215.105 61.9879 214.78 62.0791 214.503 62.2614C214.226 62.4437 214.011 62.7112 213.857 63.0639C213.705 63.4167 213.63 63.8499 213.63 64.3636C213.63 64.8774 213.705 65.3106 213.857 65.6634C214.011 66.0161 214.226 66.2836 214.503 66.4659C214.78 66.6482 215.105 66.7393 215.476 66.7393C215.848 66.7393 216.172 66.6482 216.449 66.4659C216.726 66.2836 216.94 66.0161 217.092 65.6634C217.246 65.3106 217.323 64.8774 217.323 64.3636ZM220.127 69.7543V66.7749H220.62C220.788 66.6541 220.942 66.4837 221.082 66.2635C221.222 66.041 221.341 65.7344 221.441 65.3438C221.54 64.9508 221.611 64.437 221.654 63.8026L221.86 60.7273H226.671V66.7749H227.467V69.7472H225.99V68H221.604V69.7543H220.127ZM222.396 66.7749H225.194V61.995H223.244L223.131 63.8026C223.1 64.2831 223.049 64.7093 222.978 65.081C222.91 65.4527 222.825 65.7782 222.726 66.0575C222.629 66.3345 222.519 66.5736 222.396 66.7749ZM235.319 63.2734H233.763C233.735 63.0722 233.677 62.8935 233.589 62.7372C233.502 62.5786 233.389 62.4437 233.252 62.3324C233.114 62.2211 232.956 62.1359 232.776 62.0767C232.598 62.0175 232.405 61.9879 232.197 61.9879C231.821 61.9879 231.493 62.0814 231.213 62.2685C230.934 62.4531 230.717 62.723 230.564 63.0781C230.41 63.4309 230.333 63.8594 230.333 64.3636C230.333 64.8821 230.41 65.3177 230.564 65.6705C230.72 66.0232 230.938 66.2895 231.217 66.4695C231.496 66.6494 231.819 66.7393 232.186 66.7393C232.392 66.7393 232.583 66.7121 232.758 66.6577C232.936 66.6032 233.093 66.5239 233.23 66.4197C233.368 66.3132 233.481 66.1842 233.571 66.0327C233.664 65.8812 233.728 65.7083 233.763 65.5142L235.319 65.5213C235.278 65.8551 235.178 66.1771 235.017 66.4872C234.858 66.795 234.644 67.0708 234.374 67.3146C234.106 67.5561 233.787 67.7479 233.415 67.8899C233.046 68.0296 232.628 68.0994 232.162 68.0994C231.513 68.0994 230.933 67.9527 230.422 67.6591C229.913 67.3655 229.51 66.9406 229.214 66.3842C228.921 65.8279 228.774 65.1544 228.774 64.3636C228.774 63.5705 228.923 62.8958 229.221 62.3395C229.52 61.7831 229.924 61.3594 230.436 61.0682C230.947 60.7746 231.522 60.6278 232.162 60.6278C232.583 60.6278 232.974 60.687 233.333 60.8054C233.696 60.9238 234.016 61.0966 234.296 61.3239C234.575 61.5488 234.802 61.8246 234.978 62.1513C235.155 62.478 235.269 62.852 235.319 63.2734ZM236.644 61.995V60.7273H242.617V61.995H240.391V68H238.871V61.995H236.644ZM244.101 68V60.7273H247.013C247.548 60.7273 247.994 60.8066 248.352 60.9652C248.709 61.1238 248.978 61.344 249.158 61.6257C249.338 61.9051 249.428 62.227 249.428 62.5916C249.428 62.8757 249.371 63.1255 249.257 63.3409C249.143 63.554 248.987 63.7292 248.788 63.8665C248.592 64.0014 248.367 64.0973 248.114 64.1541V64.2251C248.391 64.237 248.65 64.3151 248.891 64.4595C249.135 64.6039 249.333 64.8063 249.484 65.0668C249.636 65.3248 249.712 65.6326 249.712 65.9901C249.712 66.3759 249.616 66.7204 249.424 67.0234C249.235 67.3241 248.954 67.562 248.582 67.7372C248.211 67.9124 247.753 68 247.208 68H244.101ZM245.638 66.7429H246.892C247.321 66.7429 247.633 66.6612 247.83 66.4979C248.026 66.3321 248.124 66.112 248.124 65.8374C248.124 65.6361 248.076 65.4586 247.979 65.3047C247.882 65.1508 247.743 65.0301 247.563 64.9425C247.386 64.8549 247.174 64.8111 246.928 64.8111H245.638V66.7429ZM245.638 63.7706H246.778C246.989 63.7706 247.176 63.7339 247.339 63.6605C247.505 63.5848 247.635 63.4782 247.73 63.3409C247.827 63.2036 247.876 63.0391 247.876 62.8473C247.876 62.5845 247.782 62.3726 247.595 62.2116C247.411 62.0507 247.148 61.9702 246.807 61.9702H245.638V63.7706ZM251.212 68V60.7273H256.113V61.995H252.75V63.728H255.861V64.9957H252.75V66.7322H256.127V68H251.212ZM257.835 68V60.7273H259.373V63.728H262.494V60.7273H264.028V68H262.494V64.9957H259.373V68H257.835ZM265.796 68V60.7273H267.334V63.728H270.455V60.7273H271.989V68H270.455V64.9957H267.334V68H265.796ZM275.011 68H273.363L275.874 60.7273H277.855L280.362 68H278.714L276.893 62.3892H276.836L275.011 68ZM274.908 65.1413H278.8V66.3416H274.908V65.1413ZM287.32 68H285.786V61.9844H284.749C284.453 61.9844 284.207 62.0282 284.01 62.1158C283.816 62.201 283.671 62.3265 283.574 62.4922C283.476 62.6579 283.428 62.8615 283.428 63.103C283.428 63.3421 283.476 63.5421 283.574 63.7031C283.671 63.8641 283.816 63.9848 284.01 64.0653C284.204 64.1458 284.448 64.1861 284.742 64.1861H286.411V65.4219H284.493C283.937 65.4219 283.461 65.3295 283.066 65.1449C282.67 64.9602 282.368 64.6951 282.16 64.3494C281.952 64.0014 281.848 63.5859 281.848 63.103C281.848 62.6224 281.949 62.2045 282.153 61.8494C282.359 61.492 282.656 61.2161 283.044 61.022C283.435 60.8255 283.905 60.7273 284.454 60.7273H287.32V68ZM283.396 64.6903H285.054L283.286 68H281.588L283.396 64.6903ZM296.298 68L293.961 64.8999H293.435V68H291.898V60.7273H293.435V63.6321H293.744L296.159 60.7273H298.073L295.236 64.1009L298.205 68H296.298ZM305.751 64.3636C305.751 65.1567 305.601 65.8314 305.3 66.3878C305.002 66.9441 304.594 67.3691 304.078 67.6626C303.565 67.9538 302.987 68.0994 302.345 68.0994C301.699 68.0994 301.119 67.9527 300.605 67.6591C300.092 67.3655 299.686 66.9406 299.387 66.3842C299.089 65.8279 298.94 65.1544 298.94 64.3636C298.94 63.5705 299.089 62.8958 299.387 62.3395C299.686 61.7831 300.092 61.3594 300.605 61.0682C301.119 60.7746 301.699 60.6278 302.345 60.6278C302.987 60.6278 303.565 60.7746 304.078 61.0682C304.594 61.3594 305.002 61.7831 305.3 62.3395C305.601 62.8958 305.751 63.5705 305.751 64.3636ZM304.192 64.3636C304.192 63.8499 304.115 63.4167 303.961 63.0639C303.81 62.7112 303.595 62.4437 303.318 62.2614C303.041 62.0791 302.717 61.9879 302.345 61.9879C301.974 61.9879 301.649 62.0791 301.372 62.2614C301.095 62.4437 300.88 62.7112 300.726 63.0639C300.575 63.4167 300.499 63.8499 300.499 64.3636C300.499 64.8774 300.575 65.3106 300.726 65.6634C300.88 66.0161 301.095 66.2836 301.372 66.4659C301.649 66.6482 301.974 66.7393 302.345 66.7393C302.717 66.7393 303.041 66.6482 303.318 66.4659C303.595 66.2836 303.81 66.0161 303.961 65.6634C304.115 65.3106 304.192 64.8774 304.192 64.3636ZM307.39 60.7273H309.286L311.289 65.6136H311.374L313.377 60.7273H315.273V68H313.782V63.2663H313.722L311.839 67.9645H310.824L308.942 63.2486H308.881V68H307.39V60.7273ZM323.223 60.7273V68H321.703V61.9773H318.763V68H317.243V60.7273H323.223ZM326.44 68H324.793L327.303 60.7273H329.285L331.792 68H330.144L328.322 62.3892H328.266L326.44 68ZM326.337 65.1413H330.229V66.3416H326.337V65.1413ZM333.167 68V60.7273H334.705V63.728H337.826V60.7273H339.36V68H337.826V64.9957H334.705V68H333.167ZM341.128 60.7273H342.662V65.3011H342.723L345.865 60.7273H347.211V68H345.674V63.4226H345.62L342.46 68H341.128V60.7273ZM354.564 68H353.03V61.9844H351.993C351.697 61.9844 351.451 62.0282 351.254 62.1158C351.06 62.201 350.915 62.3265 350.818 62.4922C350.721 62.6579 350.672 62.8615 350.672 63.103C350.672 63.3421 350.721 63.5421 350.818 63.7031C350.915 63.8641 351.06 63.9848 351.254 64.0653C351.449 64.1458 351.692 64.1861 351.986 64.1861H353.655V65.4219H351.737C351.181 65.4219 350.705 65.3295 350.31 65.1449C349.914 64.9602 349.613 64.6951 349.404 64.3494C349.196 64.0014 349.092 63.5859 349.092 63.103C349.092 62.6224 349.194 62.2045 349.397 61.8494C349.603 61.492 349.9 61.2161 350.289 61.022C350.679 60.8255 351.149 60.7273 351.698 60.7273H354.564V68ZM350.64 64.6903H352.298L350.53 68H348.833L350.64 64.6903Z" fill="#52525B"/>
<defs>
<linearGradient id="paint0_linear_20_226" x1="4.75488" y1="23.3207" x2="83.854" y2="23.3207" gradientUnits="userSpaceOnUse">
<stop stop-color="#F68B6B"/>
<stop offset="1" stop-color="#DE5826"/>
</linearGradient>
<linearGradient id="paint1_linear_20_226" x1="49.8352" y1="66.8042" x2="89" y2="66.8042" gradientUnits="userSpaceOnUse">
<stop stop-color="#F68B6B"/>
<stop offset="1" stop-color="#DE5826"/>
</linearGradient>
<linearGradient id="paint2_linear_20_226" x1="47.0493" y1="12.4626" x2="69.5051" y2="20.3434" gradientUnits="userSpaceOnUse">
<stop stop-color="#962D1F"/>
<stop offset="1" stop-color="#6D2400"/>
</linearGradient>
<linearGradient id="paint3_linear_20_226" x1="33.9628" y1="21.2126" x2="58.6968" y2="27.9956" gradientUnits="userSpaceOnUse">
<stop stop-color="#962D1F"/>
<stop offset="1" stop-color="#9E3D14"/>
</linearGradient>
<linearGradient id="paint4_linear_20_226" x1="4.75488" y1="37.8569" x2="44.2894" y2="37.8569" gradientUnits="userSpaceOnUse">
<stop stop-color="#F68B6B"/>
<stop offset="1" stop-color="#DE5826"/>
</linearGradient>
<linearGradient id="paint5_linear_20_226" x1="11.1689" y1="52.2027" x2="22.8711" y2="52.2027" gradientUnits="userSpaceOnUse">
<stop stop-color="#962D1F"/>
<stop offset="1" stop-color="#9E3D14"/>
</linearGradient>
<linearGradient id="paint6_linear_20_226" x1="0" y1="66.5005" x2="39.3239" y2="66.5005" gradientUnits="userSpaceOnUse">
<stop stop-color="#F68B6B"/>
<stop offset="1" stop-color="#DE5826"/>
</linearGradient>
<linearGradient id="paint7_linear_20_226" x1="8.16821" y1="70.4304" x2="13.5206" y2="70.4304" gradientUnits="userSpaceOnUse">
<stop stop-color="#962D1F"/>
<stop offset="1" stop-color="#9E3D14"/>
</linearGradient>
<linearGradient id="paint8_linear_20_226" x1="21.1172" y1="79.2063" x2="31.1728" y2="79.2063" gradientUnits="userSpaceOnUse">
<stop stop-color="#962D1F"/>
<stop offset="1" stop-color="#9E3D14"/>
</linearGradient>
<linearGradient id="paint9_linear_20_226" x1="39.3066" y1="76.6901" x2="44.3065" y2="76.6901" gradientUnits="userSpaceOnUse">
<stop stop-color="#962D1F"/>
<stop offset="1" stop-color="#9E3D14"/>
</linearGradient>
<linearGradient id="paint10_linear_20_226" x1="58.4419" y1="78.3301" x2="80.0363" y2="78.3301" gradientUnits="userSpaceOnUse">
<stop stop-color="#962D1F"/>
<stop offset="1" stop-color="#9E3D14"/>
</linearGradient>
<clipPath id="clip0_20_226">
<rect width="89" height="101" fill="white"/>
</clipPath>
</defs>
</svg>
