<svg width="261" height="56" viewBox="0 0 261 56" fill="none" xmlns="http://www.w3.org/2000/svg">
<g clip-path="url(#clip0_237_8118)">
<path d="M25.0604 0L2.67124 12.9375L24.8817 25.8582L37.4795 18.645V18.1688L38.0857 18.4093L47.109 13.2406V12.6657L25.0604 0ZM25.128 21.2138L13.5591 14.573L18.6649 11.5184L30.3159 18.1784L25.128 21.2138ZM35.7622 13.8924L24.4759 7.40798L25.8019 6.62148L37.1148 13.1011L35.7622 13.8924Z" fill="url(#paint0_linear_237_8118)"/>
<path d="M50 23.2531V18.0771L27.9973 30.7789V55.9998L50 43.3869V24.4365L32.8278 34.2905L32.8326 32.9244L50 23.2555V23.2531ZM32.8326 39.9403L42.1385 34.5767V39.1177L32.8326 44.515V39.9427V39.9403Z" fill="url(#paint1_linear_237_8118)"/>
<path d="M47.109 13.243V16.3505L38.0857 21.5024L37.4795 21.435V21.8487L24.8913 29.0402L2.67607 16.1653L2.67124 12.9375L24.8817 25.8606L37.4795 18.6474V18.1712L38.0857 18.4117L47.109 13.243Z" fill="#F68B6B"/>
<path d="M38.0857 18.4114V21.5021L37.4795 21.4347V18.664V18.1709L38.0857 18.4114Z" fill="#962D1F"/>
<path d="M25.8018 4.26465V6.62173L37.1147 13.1013L39.158 11.9035L25.8018 4.26465Z" fill="url(#paint2_linear_237_8118)"/>
<path d="M25.8017 4.26465L22.4446 6.24171L24.4758 7.40823L25.8017 6.62173V4.26465Z" fill="#761B14"/>
<path d="M18.6648 8.32715V11.5188L30.3158 18.1788L33.0668 16.5697L18.6648 8.32715Z" fill="url(#paint3_linear_237_8118)"/>
<path d="M18.6648 8.32715L10.6946 12.9307L13.559 14.5758L18.6648 11.5188V8.32715Z" fill="#761B14"/>
<path d="M24.8817 25.8606V29.0402L2.67607 16.1653L2.67124 12.9375L24.8817 25.8606Z" fill="url(#paint4_linear_237_8118)"/>
<path d="M0 17.7431L2.67607 16.1653L8.90977 19.7779L6.27476 21.3581L0 17.7431Z" fill="#C14427"/>
<path d="M16.0951 27.1353L18.8412 25.5383L24.8913 29.0402L22.0824 30.5964L16.0951 27.1353Z" fill="#C14427"/>
<path d="M8.90967 19.7783L12.8489 34.1277L10.9988 38.1107L6.27466 21.3585L8.90967 19.7783Z" fill="url(#paint5_linear_237_8118)"/>
<path d="M0 17.7431V43.3319L4.58893 45.992V32.1093L8.81074 48.3996L11.8636 50.1482L17.5128 37.6821V53.3399L22.0921 56V30.5964L16.0951 27.1353L10.9989 38.1102L6.27476 21.3581L0 17.7431Z" fill="url(#paint6_linear_237_8118)"/>
<path d="M4.58893 32.1093V45.992L7.59588 44.3084V43.7143L4.58893 32.1093Z" fill="url(#paint7_linear_237_8118)"/>
<path d="M11.8635 50.1477L15.0251 48.3968L17.5127 43.584V37.6816L11.8635 50.1477Z" fill="url(#paint8_linear_237_8118)"/>
<path d="M22.0824 30.5964L24.8913 29.0402V54.3933L22.0921 56L22.0824 30.5964Z" fill="url(#paint9_linear_237_8118)"/>
<path d="M24.8913 29.0402L47.109 16.3505L50 18.0798L27.9973 30.7816L24.8913 29.0402Z" fill="#C14427"/>
<path d="M42.1384 34.577V39.1156L44.9643 40.7511V32.9463L42.1384 34.577Z" fill="#761B14"/>
<path d="M42.1384 39.1152L32.8325 44.5125V47.7426L44.9642 40.7508L42.1384 39.1152Z" fill="url(#paint10_linear_237_8118)"/>
<path d="M24.8913 29.0402L27.9973 30.7816V56L24.8913 54.3933V29.0402Z" fill="#761B14"/>
<path d="M49.9999 24.4364L48.8961 23.876L32.8325 32.9219L32.8276 34.288L49.9999 24.4364Z" fill="#761B14"/>
</g>
<path d="M61.0114 14.8636H63.4659V22.1818H63.5625L68.5909 14.8636H70.7443V26.5H68.2841V19.1761H68.1989L63.142 26.5H61.0114V14.8636ZM82.669 14.8636V26.5H80.2372V16.8636H75.5327V26.5H73.1009V14.8636H82.669ZM88.7145 26.5V14.8636H96.4361V16.892H91.1747V19.1648H93.0668C93.9872 19.1648 94.7808 19.3144 95.4474 19.6136C96.1179 19.9091 96.6349 20.3277 96.9986 20.8693C97.3622 21.411 97.544 22.0492 97.544 22.7841C97.544 23.5152 97.3622 24.161 96.9986 24.7216C96.6349 25.2784 96.1179 25.714 95.4474 26.0284C94.7808 26.3428 93.9872 26.5 93.0668 26.5H88.7145ZM91.1747 24.5227H93.0668C93.5062 24.5227 93.8774 24.4432 94.1804 24.2841C94.4834 24.1212 94.7126 23.9072 94.8679 23.642C95.027 23.3731 95.1065 23.0795 95.1065 22.7614C95.1065 22.2992 94.9304 21.9091 94.5781 21.5909C94.2296 21.2689 93.7259 21.108 93.0668 21.108H91.1747V24.5227ZM100.756 19.1648H103.528C104.453 19.1648 105.248 19.3144 105.915 19.6136C106.585 19.9091 107.102 20.3277 107.466 20.8693C107.83 21.411 108.009 22.0492 108.006 22.7841C108.009 23.5152 107.83 24.161 107.466 24.7216C107.102 25.2784 106.585 25.714 105.915 26.0284C105.248 26.3428 104.453 26.5 103.528 26.5H99.1818V14.8636H101.636V24.5227H103.528C103.972 24.5227 104.345 24.4432 104.648 24.2841C104.951 24.1212 105.18 23.9072 105.335 23.642C105.494 23.3731 105.572 23.0795 105.568 22.7614C105.572 22.2992 105.398 21.9091 105.045 21.5909C104.697 21.2689 104.191 21.108 103.528 21.108H100.756V19.1648ZM111.409 14.8636V26.5H108.955V14.8636H111.409ZM120.473 26.5L116.734 21.5398H115.893V26.5H113.433V14.8636H115.893V19.5114H116.388L120.251 14.8636H123.314L118.774 20.2614L123.524 26.5H120.473ZM134.798 20.6818C134.798 21.9508 134.558 23.0303 134.077 23.9205C133.599 24.8106 132.948 25.4905 132.122 25.9602C131.3 26.4261 130.376 26.6591 129.349 26.6591C128.315 26.6591 127.387 26.4242 126.565 25.9545C125.743 25.4848 125.094 24.8049 124.616 23.9148C124.139 23.0246 123.901 21.947 123.901 20.6818C123.901 19.4129 124.139 18.3333 124.616 17.4432C125.094 16.553 125.743 15.875 126.565 15.4091C127.387 14.9394 128.315 14.7045 129.349 14.7045C130.376 14.7045 131.3 14.9394 132.122 15.4091C132.948 15.875 133.599 16.553 134.077 17.4432C134.558 18.3333 134.798 19.4129 134.798 20.6818ZM132.304 20.6818C132.304 19.8598 132.181 19.1667 131.935 18.6023C131.692 18.0379 131.349 17.6098 130.906 17.3182C130.463 17.0265 129.944 16.8807 129.349 16.8807C128.755 16.8807 128.236 17.0265 127.793 17.3182C127.349 17.6098 127.005 18.0379 126.759 18.6023C126.516 19.1667 126.395 19.8598 126.395 20.6818C126.395 21.5038 126.516 22.197 126.759 22.7614C127.005 23.3258 127.349 23.7538 127.793 24.0455C128.236 24.3371 128.755 24.483 129.349 24.483C129.944 24.483 130.463 24.3371 130.906 24.0455C131.349 23.7538 131.692 23.3258 131.935 22.7614C132.181 22.197 132.304 21.5038 132.304 20.6818ZM136.621 26.5V14.8636H141.28C142.136 14.8636 142.85 14.9905 143.422 15.2443C143.994 15.4981 144.424 15.8504 144.712 16.3011C145 16.7481 145.143 17.2633 145.143 17.8466C145.143 18.3011 145.053 18.7008 144.871 19.0455C144.689 19.3864 144.439 19.6667 144.121 19.8864C143.806 20.1023 143.446 20.2557 143.041 20.3466V20.4602C143.484 20.4792 143.899 20.6042 144.286 20.8352C144.676 21.0663 144.992 21.3902 145.234 21.8068C145.477 22.2197 145.598 22.7121 145.598 23.2841C145.598 23.9015 145.445 24.4527 145.138 24.9375C144.835 25.4186 144.386 25.7992 143.791 26.0795C143.196 26.3598 142.464 26.5 141.592 26.5H136.621ZM139.081 24.4886H141.087C141.772 24.4886 142.272 24.358 142.587 24.0966C142.901 23.8314 143.058 23.4792 143.058 23.0398C143.058 22.7178 142.981 22.4337 142.825 22.1875C142.67 21.9413 142.448 21.7481 142.161 21.608C141.876 21.4678 141.537 21.3977 141.143 21.3977H139.081V24.4886ZM139.081 19.733H140.905C141.242 19.733 141.541 19.6742 141.803 19.5568C142.068 19.4356 142.276 19.2652 142.428 19.0455C142.583 18.8258 142.661 18.5625 142.661 18.2557C142.661 17.8352 142.511 17.4962 142.212 17.2386C141.916 16.9811 141.496 16.8523 140.95 16.8523H139.081V19.733ZM157.466 18.9375H154.977C154.932 18.6155 154.839 18.3295 154.699 18.0795C154.559 17.8258 154.379 17.6098 154.159 17.4318C153.939 17.2538 153.686 17.1174 153.398 17.0227C153.114 16.928 152.805 16.8807 152.472 16.8807C151.869 16.8807 151.345 17.0303 150.898 17.3295C150.451 17.625 150.104 18.0568 149.858 18.625C149.612 19.1894 149.489 19.875 149.489 20.6818C149.489 21.5114 149.612 22.2083 149.858 22.7727C150.108 23.3371 150.456 23.7633 150.903 24.0511C151.35 24.339 151.867 24.483 152.455 24.483C152.784 24.483 153.089 24.4394 153.369 24.3523C153.653 24.2652 153.905 24.1383 154.125 23.9716C154.345 23.8011 154.527 23.5947 154.67 23.3523C154.818 23.1098 154.92 22.8333 154.977 22.5227L157.466 22.5341C157.402 23.0682 157.241 23.5833 156.983 24.0795C156.729 24.572 156.386 25.0133 155.955 25.4034C155.527 25.7898 155.015 26.0966 154.42 26.3239C153.83 26.5473 153.161 26.6591 152.415 26.6591C151.377 26.6591 150.449 26.4242 149.631 25.9545C148.816 25.4848 148.172 24.8049 147.699 23.9148C147.229 23.0246 146.994 21.947 146.994 20.6818C146.994 19.4129 147.233 18.3333 147.71 17.4432C148.188 16.553 148.835 15.875 149.653 15.4091C150.472 14.9394 151.392 14.7045 152.415 14.7045C153.089 14.7045 153.714 14.7992 154.29 14.9886C154.869 15.178 155.383 15.4545 155.83 15.8182C156.277 16.178 156.64 16.6193 156.92 17.142C157.205 17.6648 157.386 18.2633 157.466 18.9375ZM166.27 26.5L162.531 21.5398H161.69V26.5H159.23V14.8636H161.69V19.5114H162.185L166.048 14.8636H169.111L164.571 20.2614L169.321 26.5H166.27ZM170.558 14.8636H173.013V22.1818H173.109L178.138 14.8636H180.291V26.5H177.831V19.1761H177.746L172.689 26.5H170.558V14.8636ZM182.324 14.8636H184.778V22.1818H184.875L189.903 14.8636H192.057V26.5H189.597V19.1761H189.511L184.455 26.5H182.324V14.8636ZM188.324 11.8182H190.011C190.008 12.5076 189.752 13.0625 189.244 13.483C188.741 13.9034 188.059 14.1136 187.199 14.1136C186.335 14.1136 185.652 13.9034 185.148 13.483C184.644 13.0625 184.392 12.5076 184.392 11.8182H186.068C186.064 12.0795 186.148 12.3144 186.318 12.5227C186.492 12.7311 186.786 12.8352 187.199 12.8352C187.6 12.8352 187.888 12.733 188.062 12.5284C188.237 12.3239 188.324 12.0871 188.324 11.8182ZM197.793 14.8636H200.827L204.031 22.6818H204.168L207.372 14.8636H210.406V26.5H208.02V18.9261H207.923L204.912 26.4432H203.287L200.276 18.8977H200.179V26.5H197.793V14.8636ZM213.803 26.6477C213.428 26.6477 213.106 26.5152 212.837 26.25C212.571 25.9811 212.439 25.6591 212.439 25.2841C212.439 24.9129 212.571 24.5947 212.837 24.3295C213.106 24.0644 213.428 23.9318 213.803 23.9318C214.166 23.9318 214.484 24.0644 214.757 24.3295C215.03 24.5947 215.166 24.9129 215.166 25.2841C215.166 25.5341 215.102 25.7633 214.973 25.9716C214.848 26.1761 214.683 26.3409 214.479 26.4659C214.274 26.5871 214.049 26.6477 213.803 26.6477ZM217.199 26.5V14.8636H221.858C222.714 14.8636 223.428 14.9905 224 15.2443C224.572 15.4981 225.002 15.8504 225.29 16.3011C225.578 16.7481 225.722 17.2633 225.722 17.8466C225.722 18.3011 225.631 18.7008 225.449 19.0455C225.267 19.3864 225.017 19.6667 224.699 19.8864C224.384 20.1023 224.025 20.2557 223.619 20.3466V20.4602C224.063 20.4792 224.477 20.6042 224.864 20.8352C225.254 21.0663 225.57 21.3902 225.812 21.8068C226.055 22.2197 226.176 22.7121 226.176 23.2841C226.176 23.9015 226.023 24.4527 225.716 24.9375C225.413 25.4186 224.964 25.7992 224.369 26.0795C223.775 26.3598 223.042 26.5 222.17 26.5H217.199ZM219.659 24.4886H221.665C222.35 24.4886 222.85 24.358 223.165 24.0966C223.479 23.8314 223.636 23.4792 223.636 23.0398C223.636 22.7178 223.559 22.4337 223.403 22.1875C223.248 21.9413 223.027 21.7481 222.739 21.608C222.455 21.4678 222.116 21.3977 221.722 21.3977H219.659V24.4886ZM219.659 19.733H221.483C221.82 19.733 222.119 19.6742 222.381 19.5568C222.646 19.4356 222.854 19.2652 223.006 19.0455C223.161 18.8258 223.239 18.5625 223.239 18.2557C223.239 17.8352 223.089 17.4962 222.79 17.2386C222.494 16.9811 222.074 16.8523 221.528 16.8523H219.659V19.733ZM229.146 26.6477C228.771 26.6477 228.449 26.5152 228.18 26.25C227.915 25.9811 227.783 25.6591 227.783 25.2841C227.783 24.9129 227.915 24.5947 228.18 24.3295C228.449 24.0644 228.771 23.9318 229.146 23.9318C229.51 23.9318 229.828 24.0644 230.101 24.3295C230.374 24.5947 230.51 24.9129 230.51 25.2841C230.51 25.5341 230.446 25.7633 230.317 25.9716C230.192 26.1761 230.027 26.3409 229.822 26.4659C229.618 26.5871 229.393 26.6477 229.146 26.6477Z" fill="#1A1C1C"/>
<path d="M60.2841 39.696V38.6818H65.0625V39.696H63.2812V44.5H62.0653V39.696H60.2841ZM71.4304 41.5909C71.4304 42.2254 71.3101 42.7652 71.0696 43.2102C70.831 43.6553 70.5052 43.9953 70.0923 44.2301C69.6813 44.4631 69.2192 44.5795 68.706 44.5795C68.1889 44.5795 67.7249 44.4621 67.3139 44.2273C66.9029 43.9924 66.5781 43.6525 66.3395 43.2074C66.1009 42.7623 65.9815 42.2235 65.9815 41.5909C65.9815 40.9564 66.1009 40.4167 66.3395 39.9716C66.5781 39.5265 66.9029 39.1875 67.3139 38.9545C67.7249 38.7197 68.1889 38.6023 68.706 38.6023C69.2192 38.6023 69.6813 38.7197 70.0923 38.9545C70.5052 39.1875 70.831 39.5265 71.0696 39.9716C71.3101 40.4167 71.4304 40.9564 71.4304 41.5909ZM70.1832 41.5909C70.1832 41.1799 70.1217 40.8333 69.9986 40.5511C69.8774 40.2689 69.706 40.0549 69.4844 39.9091C69.2628 39.7633 69.0033 39.6903 68.706 39.6903C68.4086 39.6903 68.1491 39.7633 67.9276 39.9091C67.706 40.0549 67.5336 40.2689 67.4105 40.5511C67.2893 40.8333 67.2287 41.1799 67.2287 41.5909C67.2287 42.0019 67.2893 42.3485 67.4105 42.6307C67.5336 42.9129 67.706 43.1269 67.9276 43.2727C68.1491 43.4186 68.4086 43.4915 68.706 43.4915C69.0033 43.4915 69.2628 43.4186 69.4844 43.2727C69.706 43.1269 69.8774 42.9129 69.9986 42.6307C70.1217 42.3485 70.1832 42.0019 70.1832 41.5909ZM72.8416 44.5V38.6818H75.1371C75.5784 38.6818 75.9543 38.7661 76.2649 38.9347C76.5755 39.1013 76.8123 39.3333 76.9751 39.6307C77.1399 39.9261 77.2223 40.267 77.2223 40.6534C77.2223 41.0398 77.139 41.3807 76.9723 41.6761C76.8056 41.9716 76.5642 42.2017 76.2479 42.3665C75.9335 42.5312 75.5528 42.6136 75.1058 42.6136H73.6428V41.6278H74.907C75.1437 41.6278 75.3388 41.5871 75.4922 41.5057C75.6475 41.4223 75.763 41.3078 75.8388 41.1619C75.9164 41.0142 75.9553 40.8447 75.9553 40.6534C75.9553 40.4602 75.9164 40.2917 75.8388 40.1477C75.763 40.0019 75.6475 39.8892 75.4922 39.8097C75.3369 39.7282 75.1399 39.6875 74.9013 39.6875H74.0717V44.5H72.8416ZM82.3821 38.6818V39.696H79.7514V44.5H78.5213V38.6818H82.3821ZM88.7507 41.5909C88.7507 42.2254 88.6304 42.7652 88.3899 43.2102C88.1513 43.6553 87.8255 43.9953 87.4126 44.2301C87.0017 44.4631 86.5395 44.5795 86.0263 44.5795C85.5092 44.5795 85.0452 44.4621 84.6342 44.2273C84.2232 43.9924 83.8984 43.6525 83.6598 43.2074C83.4212 42.7623 83.3018 42.2235 83.3018 41.5909C83.3018 40.9564 83.4212 40.4167 83.6598 39.9716C83.8984 39.5265 84.2232 39.1875 84.6342 38.9545C85.0452 38.7197 85.5092 38.6023 86.0263 38.6023C86.5395 38.6023 87.0017 38.7197 87.4126 38.9545C87.8255 39.1875 88.1513 39.5265 88.3899 39.9716C88.6304 40.4167 88.7507 40.9564 88.7507 41.5909ZM87.5036 41.5909C87.5036 41.1799 87.442 40.8333 87.3189 40.5511C87.1977 40.2689 87.0263 40.0549 86.8047 39.9091C86.5831 39.7633 86.3236 39.6903 86.0263 39.6903C85.7289 39.6903 85.4695 39.7633 85.2479 39.9091C85.0263 40.0549 84.8539 40.2689 84.7308 40.5511C84.6096 40.8333 84.549 41.1799 84.549 41.5909C84.549 42.0019 84.6096 42.3485 84.7308 42.6307C84.8539 42.9129 85.0263 43.1269 85.2479 43.2727C85.4695 43.4186 85.7289 43.4915 86.0263 43.4915C86.3236 43.4915 86.5831 43.4186 86.8047 43.2727C87.0263 43.1269 87.1977 42.9129 87.3189 42.6307C87.442 42.3485 87.5036 42.0019 87.5036 41.5909ZM90.1619 44.5V38.6818H92.4915C92.9195 38.6818 93.2765 38.7453 93.5625 38.8722C93.8485 38.9991 94.0634 39.1752 94.2074 39.4006C94.3513 39.6241 94.4233 39.8816 94.4233 40.1733C94.4233 40.4006 94.3778 40.6004 94.2869 40.7727C94.196 40.9432 94.071 41.0833 93.9119 41.1932C93.7547 41.3011 93.5748 41.3778 93.3722 41.4233V41.4801C93.5938 41.4896 93.8011 41.5521 93.9943 41.6676C94.1894 41.7831 94.3475 41.9451 94.4688 42.1534C94.59 42.3598 94.6506 42.6061 94.6506 42.892C94.6506 43.2008 94.5739 43.4763 94.4205 43.7188C94.2689 43.9593 94.0445 44.1496 93.7472 44.2898C93.4498 44.4299 93.0833 44.5 92.6477 44.5H90.1619ZM91.392 43.4943H92.3949C92.7377 43.4943 92.9877 43.429 93.1449 43.2983C93.3021 43.1657 93.3807 42.9896 93.3807 42.7699C93.3807 42.6089 93.3419 42.4669 93.2642 42.3438C93.1866 42.2206 93.0758 42.1241 92.9318 42.054C92.7898 41.9839 92.6203 41.9489 92.4233 41.9489H91.392V43.4943ZM91.392 41.1165H92.304C92.4725 41.1165 92.6222 41.0871 92.7528 41.0284C92.8854 40.9678 92.9896 40.8826 93.0653 40.7727C93.143 40.6629 93.1818 40.5312 93.1818 40.3778C93.1818 40.1676 93.107 39.9981 92.9574 39.8693C92.8097 39.7405 92.5994 39.6761 92.3267 39.6761H91.392V41.1165ZM101.298 41.5909C101.298 42.2254 101.177 42.7652 100.937 43.2102C100.698 43.6553 100.372 43.9953 99.9595 44.2301C99.5485 44.4631 99.0864 44.5795 98.5732 44.5795C98.0561 44.5795 97.5921 44.4621 97.1811 44.2273C96.7701 43.9924 96.4453 43.6525 96.2067 43.2074C95.968 42.7623 95.8487 42.2235 95.8487 41.5909C95.8487 40.9564 95.968 40.4167 96.2067 39.9716C96.4453 39.5265 96.7701 39.1875 97.1811 38.9545C97.5921 38.7197 98.0561 38.6023 98.5732 38.6023C99.0864 38.6023 99.5485 38.7197 99.9595 38.9545C100.372 39.1875 100.698 39.5265 100.937 39.9716C101.177 40.4167 101.298 40.9564 101.298 41.5909ZM100.05 41.5909C100.05 41.1799 99.9889 40.8333 99.8658 40.5511C99.7446 40.2689 99.5732 40.0549 99.3516 39.9091C99.13 39.7633 98.8705 39.6903 98.5732 39.6903C98.2758 39.6903 98.0163 39.7633 97.7947 39.9091C97.5732 40.0549 97.4008 40.2689 97.2777 40.5511C97.1565 40.8333 97.0959 41.1799 97.0959 41.5909C97.0959 42.0019 97.1565 42.3485 97.2777 42.6307C97.4008 42.9129 97.5732 43.1269 97.7947 43.2727C98.0163 43.4186 98.2758 43.4915 98.5732 43.4915C98.8705 43.4915 99.13 43.4186 99.3516 43.2727C99.5732 43.1269 99.7446 42.9129 99.8658 42.6307C99.9889 42.3485 100.05 42.0019 100.05 41.5909ZM105.405 41.1108V42.071H102.751V41.1108H105.405ZM111.905 38.6818V44.5H110.689V39.6818H108.337V44.5H107.121V38.6818H111.905ZM113.576 44.5V38.6818H115.871C116.313 38.6818 116.689 38.7661 116.999 38.9347C117.31 39.1013 117.547 39.3333 117.71 39.6307C117.874 39.9261 117.957 40.267 117.957 40.6534C117.957 41.0398 117.873 41.3807 117.707 41.6761C117.54 41.9716 117.299 42.2017 116.982 42.3665C116.668 42.5312 116.287 42.6136 115.84 42.6136H114.377V41.6278H115.641C115.878 41.6278 116.073 41.5871 116.227 41.5057C116.382 41.4223 116.497 41.3078 116.573 41.1619C116.651 41.0142 116.69 40.8447 116.69 40.6534C116.69 40.4602 116.651 40.2917 116.573 40.1477C116.497 40.0019 116.382 39.8892 116.227 39.8097C116.071 39.7282 115.874 39.6875 115.636 39.6875H114.806V44.5H113.576ZM124.602 41.5909C124.602 42.2254 124.482 42.7652 124.241 43.2102C124.003 43.6553 123.677 43.9953 123.264 44.2301C122.853 44.4631 122.391 44.5795 121.878 44.5795C121.361 44.5795 120.897 44.4621 120.486 44.2273C120.075 43.9924 119.75 43.6525 119.511 43.2074C119.273 42.7623 119.153 42.2235 119.153 41.5909C119.153 40.9564 119.273 40.4167 119.511 39.9716C119.75 39.5265 120.075 39.1875 120.486 38.9545C120.897 38.7197 121.361 38.6023 121.878 38.6023C122.391 38.6023 122.853 38.7197 123.264 38.9545C123.677 39.1875 124.003 39.5265 124.241 39.9716C124.482 40.4167 124.602 40.9564 124.602 41.5909ZM123.355 41.5909C123.355 41.1799 123.294 40.8333 123.17 40.5511C123.049 40.2689 122.878 40.0549 122.656 39.9091C122.435 39.7633 122.175 39.6903 121.878 39.6903C121.58 39.6903 121.321 39.7633 121.099 39.9091C120.878 40.0549 120.705 40.2689 120.582 40.5511C120.461 40.8333 120.401 41.1799 120.401 41.5909C120.401 42.0019 120.461 42.3485 120.582 42.6307C120.705 42.9129 120.878 43.1269 121.099 43.2727C121.321 43.4186 121.58 43.4915 121.878 43.4915C122.175 43.4915 122.435 43.4186 122.656 43.2727C122.878 43.1269 123.049 42.9129 123.17 42.6307C123.294 42.3485 123.355 42.0019 123.355 41.5909ZM126.013 38.6818H127.241V42.3409H127.289L129.803 38.6818H130.88V44.5H129.65V40.8381H129.607L127.079 44.5H126.013V38.6818ZM134.513 44.5795C134.089 44.5795 133.711 44.5066 133.379 44.3608C133.05 44.2131 132.789 44.0104 132.598 43.7528C132.409 43.4934 132.311 43.1941 132.305 42.8551H133.544C133.552 42.9972 133.598 43.1222 133.683 43.2301C133.77 43.3362 133.886 43.4186 134.03 43.4773C134.174 43.536 134.336 43.5653 134.516 43.5653C134.703 43.5653 134.869 43.5322 135.013 43.4659C135.157 43.3996 135.269 43.3078 135.351 43.1903C135.432 43.0729 135.473 42.9375 135.473 42.7841C135.473 42.6288 135.429 42.4915 135.342 42.3722C135.257 42.2509 135.134 42.1562 134.973 42.0881C134.814 42.0199 134.625 41.9858 134.405 41.9858H133.862V41.0824H134.405C134.59 41.0824 134.754 41.0502 134.896 40.9858C135.04 40.9214 135.152 40.8324 135.232 40.7188C135.311 40.6032 135.351 40.4688 135.351 40.3153C135.351 40.1695 135.316 40.0417 135.246 39.9318C135.178 39.8201 135.081 39.733 134.956 39.6705C134.833 39.608 134.689 39.5767 134.524 39.5767C134.357 39.5767 134.205 39.607 134.067 39.6676C133.929 39.7263 133.818 39.8106 133.734 39.9205C133.651 40.0303 133.607 40.1591 133.601 40.3068H132.422C132.428 39.9716 132.523 39.6761 132.709 39.4205C132.894 39.1648 133.144 38.965 133.459 38.821C133.775 38.6752 134.132 38.6023 134.53 38.6023C134.931 38.6023 135.283 38.6752 135.584 38.821C135.885 38.9669 136.119 39.1638 136.286 39.4119C136.454 39.6581 136.537 39.9347 136.536 40.2415C136.537 40.5672 136.436 40.839 136.232 41.0568C136.029 41.2746 135.765 41.4129 135.439 41.4716V41.517C135.867 41.572 136.193 41.7206 136.416 41.9631C136.642 42.2036 136.753 42.5047 136.751 42.8665C136.753 43.1979 136.658 43.4924 136.464 43.75C136.273 44.0076 136.009 44.2102 135.672 44.358C135.335 44.5057 134.948 44.5795 134.513 44.5795ZM138.17 44.5V38.6818H140.499C140.927 38.6818 141.284 38.7453 141.57 38.8722C141.856 38.9991 142.071 39.1752 142.215 39.4006C142.359 39.6241 142.431 39.8816 142.431 40.1733C142.431 40.4006 142.386 40.6004 142.295 40.7727C142.204 40.9432 142.079 41.0833 141.92 41.1932C141.763 41.3011 141.583 41.3778 141.38 41.4233V41.4801C141.602 41.4896 141.809 41.5521 142.002 41.6676C142.197 41.7831 142.355 41.9451 142.477 42.1534C142.598 42.3598 142.658 42.6061 142.658 42.892C142.658 43.2008 142.582 43.4763 142.428 43.7188C142.277 43.9593 142.052 44.1496 141.755 44.2898C141.458 44.4299 141.091 44.5 140.656 44.5H138.17ZM139.4 43.4943H140.403C140.746 43.4943 140.996 43.429 141.153 43.2983C141.31 43.1657 141.388 42.9896 141.388 42.7699C141.388 42.6089 141.35 42.4669 141.272 42.3438C141.194 42.2206 141.084 42.1241 140.94 42.054C140.798 41.9839 140.628 41.9489 140.431 41.9489H139.4V43.4943ZM139.4 41.1165H140.312C140.48 41.1165 140.63 41.0871 140.761 41.0284C140.893 40.9678 140.997 40.8826 141.073 40.7727C141.151 40.6629 141.19 40.5312 141.19 40.3778C141.19 40.1676 141.115 39.9981 140.965 39.8693C140.817 39.7405 140.607 39.6761 140.335 39.6761H139.4V41.1165ZM149.305 41.5909C149.305 42.2254 149.185 42.7652 148.945 43.2102C148.706 43.6553 148.38 43.9953 147.967 44.2301C147.556 44.4631 147.094 44.5795 146.581 44.5795C146.064 44.5795 145.6 44.4621 145.189 44.2273C144.778 43.9924 144.453 43.6525 144.214 43.2074C143.976 42.7623 143.857 42.2235 143.857 41.5909C143.857 40.9564 143.976 40.4167 144.214 39.9716C144.453 39.5265 144.778 39.1875 145.189 38.9545C145.6 38.7197 146.064 38.6023 146.581 38.6023C147.094 38.6023 147.556 38.7197 147.967 38.9545C148.38 39.1875 148.706 39.5265 148.945 39.9716C149.185 40.4167 149.305 40.9564 149.305 41.5909ZM148.058 41.5909C148.058 41.1799 147.997 40.8333 147.874 40.5511C147.752 40.2689 147.581 40.0549 147.359 39.9091C147.138 39.7633 146.878 39.6903 146.581 39.6903C146.284 39.6903 146.024 39.7633 145.803 39.9091C145.581 40.0549 145.409 40.2689 145.286 40.5511C145.164 40.8333 145.104 41.1799 145.104 41.5909C145.104 42.0019 145.164 42.3485 145.286 42.6307C145.409 42.9129 145.581 43.1269 145.803 43.2727C146.024 43.4186 146.284 43.4915 146.581 43.4915C146.878 43.4915 147.138 43.4186 147.359 43.2727C147.581 43.1269 147.752 42.9129 147.874 42.6307C147.997 42.3485 148.058 42.0019 148.058 41.5909ZM150.401 45.9034V43.5199H150.796C150.931 43.4233 151.054 43.2869 151.165 43.1108C151.277 42.9328 151.373 42.6875 151.452 42.375C151.532 42.0606 151.589 41.6496 151.623 41.142L151.788 38.6818H155.637V43.5199H156.273V45.8977H155.092V44.5H151.583V45.9034H150.401ZM152.217 43.5199H154.455V39.696H152.896L152.805 41.142C152.78 41.5265 152.739 41.8674 152.683 42.1648C152.628 42.4621 152.56 42.7225 152.481 42.946C152.403 43.1676 152.315 43.3589 152.217 43.5199ZM162.655 40.7188H161.411C161.388 40.5578 161.341 40.4148 161.271 40.2898C161.201 40.1629 161.111 40.0549 161.001 39.9659C160.892 39.8769 160.765 39.8087 160.621 39.7614C160.479 39.714 160.324 39.6903 160.158 39.6903C159.857 39.6903 159.594 39.7652 159.371 39.9148C159.147 40.0625 158.974 40.2784 158.851 40.5625C158.728 40.8447 158.666 41.1875 158.666 41.5909C158.666 42.0057 158.728 42.3542 158.851 42.6364C158.976 42.9186 159.15 43.1316 159.374 43.2756C159.597 43.4195 159.856 43.4915 160.149 43.4915C160.314 43.4915 160.466 43.4697 160.607 43.4261C160.749 43.3826 160.875 43.3191 160.984 43.2358C161.094 43.1506 161.185 43.0473 161.257 42.9261C161.331 42.8049 161.382 42.6667 161.411 42.5114L162.655 42.517C162.623 42.7841 162.542 43.0417 162.413 43.2898C162.286 43.536 162.115 43.7566 161.899 43.9517C161.685 44.1449 161.429 44.2983 161.132 44.4119C160.837 44.5237 160.502 44.5795 160.129 44.5795C159.61 44.5795 159.146 44.4621 158.737 44.2273C158.33 43.9924 158.008 43.6525 157.771 43.2074C157.536 42.7623 157.419 42.2235 157.419 41.5909C157.419 40.9564 157.538 40.4167 157.777 39.9716C158.016 39.5265 158.339 39.1875 158.749 38.9545C159.158 38.7197 159.618 38.6023 160.129 38.6023C160.466 38.6023 160.779 38.6496 161.067 38.7443C161.357 38.839 161.613 38.9773 161.837 39.1591C162.06 39.339 162.242 39.5597 162.382 39.821C162.524 40.0824 162.615 40.3816 162.655 40.7188ZM163.815 39.696V38.6818H168.594V39.696H166.812V44.5H165.597V39.696H163.815ZM169.881 44.5V38.6818H172.21C172.638 38.6818 172.995 38.7453 173.281 38.8722C173.567 38.9991 173.782 39.1752 173.926 39.4006C174.07 39.6241 174.142 39.8816 174.142 40.1733C174.142 40.4006 174.097 40.6004 174.006 40.7727C173.915 40.9432 173.79 41.0833 173.631 41.1932C173.473 41.3011 173.294 41.3778 173.091 41.4233V41.4801C173.313 41.4896 173.52 41.5521 173.713 41.6676C173.908 41.7831 174.066 41.9451 174.188 42.1534C174.309 42.3598 174.369 42.6061 174.369 42.892C174.369 43.2008 174.293 43.4763 174.139 43.7188C173.988 43.9593 173.763 44.1496 173.466 44.2898C173.169 44.4299 172.802 44.5 172.366 44.5H169.881ZM171.111 43.4943H172.114C172.456 43.4943 172.706 43.429 172.864 43.2983C173.021 43.1657 173.099 42.9896 173.099 42.7699C173.099 42.6089 173.061 42.4669 172.983 42.3438C172.905 42.2206 172.795 42.1241 172.651 42.054C172.509 41.9839 172.339 41.9489 172.142 41.9489H171.111V43.4943ZM171.111 41.1165H172.023C172.191 41.1165 172.341 41.0871 172.472 41.0284C172.604 40.9678 172.708 40.8826 172.784 40.7727C172.862 40.6629 172.901 40.5312 172.901 40.3778C172.901 40.1676 172.826 39.9981 172.676 39.8693C172.528 39.7405 172.318 39.6761 172.045 39.6761H171.111V41.1165ZM175.67 44.5V38.6818H179.59V39.696H176.9V41.0824H179.388V42.0966H176.9V43.4858H179.602V44.5H175.67ZM181.068 44.5V38.6818H182.298V41.0824H184.795V38.6818H186.023V44.5H184.795V42.0966H182.298V44.5H181.068ZM187.537 44.5V38.6818H188.767V41.0824H191.264V38.6818H192.491V44.5H191.264V42.0966H188.767V44.5H187.537ZM195.009 44.5H193.69L195.699 38.6818H197.284L199.29 44.5H197.972L196.514 40.0114H196.469L195.009 44.5ZM194.926 42.2131H198.04V43.1733H194.926V42.2131ZM204.956 44.5H203.729V39.6875H202.899C202.662 39.6875 202.465 39.7225 202.308 39.7926C202.153 39.8608 202.036 39.9612 201.959 40.0938C201.881 40.2263 201.842 40.3892 201.842 40.5824C201.842 40.7737 201.881 40.9337 201.959 41.0625C202.036 41.1913 202.153 41.2879 202.308 41.3523C202.464 41.4167 202.659 41.4489 202.893 41.4489H204.229V42.4375H202.695C202.25 42.4375 201.869 42.3636 201.553 42.2159C201.236 42.0682 200.995 41.8561 200.828 41.5795C200.661 41.3011 200.578 40.9687 200.578 40.5824C200.578 40.1979 200.66 39.8636 200.822 39.5795C200.987 39.2936 201.225 39.0729 201.536 38.9176C201.848 38.7604 202.224 38.6818 202.663 38.6818H204.956V44.5ZM201.817 41.8523H203.143L201.729 44.5H200.371L201.817 41.8523ZM212.338 44.5L210.469 42.0199H210.048V44.5H208.818V38.6818H210.048V41.0057H210.295L212.227 38.6818H213.759L211.489 41.3807L213.864 44.5H212.338ZM220.001 41.5909C220.001 42.2254 219.88 42.7652 219.64 43.2102C219.401 43.6553 219.076 43.9953 218.663 44.2301C218.252 44.4631 217.79 44.5795 217.276 44.5795C216.759 44.5795 216.295 44.4621 215.884 44.2273C215.473 43.9924 215.148 43.6525 214.91 43.2074C214.671 42.7623 214.552 42.2235 214.552 41.5909C214.552 40.9564 214.671 40.4167 214.91 39.9716C215.148 39.5265 215.473 39.1875 215.884 38.9545C216.295 38.7197 216.759 38.6023 217.276 38.6023C217.79 38.6023 218.252 38.7197 218.663 38.9545C219.076 39.1875 219.401 39.5265 219.64 39.9716C219.88 40.4167 220.001 40.9564 220.001 41.5909ZM218.754 41.5909C218.754 41.1799 218.692 40.8333 218.569 40.5511C218.448 40.2689 218.276 40.0549 218.055 39.9091C217.833 39.7633 217.574 39.6903 217.276 39.6903C216.979 39.6903 216.719 39.7633 216.498 39.9091C216.276 40.0549 216.104 40.2689 215.981 40.5511C215.86 40.8333 215.799 41.1799 215.799 41.5909C215.799 42.0019 215.86 42.3485 215.981 42.6307C216.104 42.9129 216.276 43.1269 216.498 43.2727C216.719 43.4186 216.979 43.4915 217.276 43.4915C217.574 43.4915 217.833 43.4186 218.055 43.2727C218.276 43.1269 218.448 42.9129 218.569 42.6307C218.692 42.3485 218.754 42.0019 218.754 41.5909ZM221.412 38.6818H222.929L224.531 42.5909H224.599L226.202 38.6818H227.719V44.5H226.526V40.7131H226.477L224.972 44.4716H224.159L222.653 40.6989H222.605V44.5H221.412V38.6818ZM234.178 38.6818V44.5H232.962V39.6818H230.61V44.5H229.394V38.6818H234.178ZM236.852 44.5H235.534L237.543 38.6818H239.128L241.134 44.5H239.815L238.358 40.0114H238.312L236.852 44.5ZM236.77 42.2131H239.884V43.1733H236.77V42.2131ZM242.334 44.5V38.6818H243.564V41.0824H246.061V38.6818H247.288V44.5H246.061V42.0966H243.564V44.5H242.334ZM248.803 38.6818H250.03V42.3409H250.078L252.592 38.6818H253.669V44.5H252.439V40.8381H252.396L249.868 44.5H248.803V38.6818ZM259.651 44.5H258.424V39.6875H257.594C257.358 39.6875 257.161 39.7225 257.004 39.7926C256.848 39.8608 256.732 39.9612 256.654 40.0938C256.576 40.2263 256.538 40.3892 256.538 40.5824C256.538 40.7737 256.576 40.9337 256.654 41.0625C256.732 41.1913 256.848 41.2879 257.004 41.3523C257.159 41.4167 257.354 41.4489 257.589 41.4489H258.924V42.4375H257.39C256.945 42.4375 256.564 42.3636 256.248 42.2159C255.932 42.0682 255.69 41.8561 255.523 41.5795C255.357 41.3011 255.273 40.9687 255.273 40.5824C255.273 40.1979 255.355 39.8636 255.518 39.5795C255.683 39.2936 255.92 39.0729 256.231 38.9176C256.543 38.7604 256.919 38.6818 257.359 38.6818H259.651V44.5ZM256.512 41.8523H257.839L256.424 44.5H255.066L256.512 41.8523Z" fill="#52525B"/>
<defs>
<linearGradient id="paint0_linear_237_8118" x1="2.67124" y1="12.9303" x2="47.109" y2="12.9303" gradientUnits="userSpaceOnUse">
<stop stop-color="#F68B6B"/>
<stop offset="1" stop-color="#DE5826"/>
</linearGradient>
<linearGradient id="paint1_linear_237_8118" x1="27.9973" y1="37.0397" x2="50" y2="37.0397" gradientUnits="userSpaceOnUse">
<stop stop-color="#F68B6B"/>
<stop offset="1" stop-color="#DE5826"/>
</linearGradient>
<linearGradient id="paint2_linear_237_8118" x1="26.4321" y1="6.91036" x2="39.011" y2="11.3833" gradientUnits="userSpaceOnUse">
<stop stop-color="#962D1F"/>
<stop offset="1" stop-color="#6D2400"/>
</linearGradient>
<linearGradient id="paint3_linear_237_8118" x1="19.0802" y1="11.7618" x2="32.9499" y2="15.6157" gradientUnits="userSpaceOnUse">
<stop stop-color="#962D1F"/>
<stop offset="1" stop-color="#9E3D14"/>
</linearGradient>
<linearGradient id="paint4_linear_237_8118" x1="2.67124" y1="20.9901" x2="24.8817" y2="20.9901" gradientUnits="userSpaceOnUse">
<stop stop-color="#F68B6B"/>
<stop offset="1" stop-color="#DE5826"/>
</linearGradient>
<linearGradient id="paint5_linear_237_8118" x1="6.27466" y1="28.9445" x2="12.8489" y2="28.9445" gradientUnits="userSpaceOnUse">
<stop stop-color="#962D1F"/>
<stop offset="1" stop-color="#9E3D14"/>
</linearGradient>
<linearGradient id="paint6_linear_237_8118" x1="0" y1="36.8715" x2="22.0921" y2="36.8715" gradientUnits="userSpaceOnUse">
<stop stop-color="#F68B6B"/>
<stop offset="1" stop-color="#DE5826"/>
</linearGradient>
<linearGradient id="paint7_linear_237_8118" x1="4.58893" y1="39.0506" x2="7.59588" y2="39.0506" gradientUnits="userSpaceOnUse">
<stop stop-color="#962D1F"/>
<stop offset="1" stop-color="#9E3D14"/>
</linearGradient>
<linearGradient id="paint8_linear_237_8118" x1="11.8635" y1="43.9159" x2="17.5127" y2="43.9159" gradientUnits="userSpaceOnUse">
<stop stop-color="#962D1F"/>
<stop offset="1" stop-color="#9E3D14"/>
</linearGradient>
<linearGradient id="paint9_linear_237_8118" x1="22.0824" y1="42.5213" x2="24.8913" y2="42.5213" gradientUnits="userSpaceOnUse">
<stop stop-color="#962D1F"/>
<stop offset="1" stop-color="#9E3D14"/>
</linearGradient>
<linearGradient id="paint10_linear_237_8118" x1="32.8325" y1="43.4301" x2="44.9642" y2="43.4301" gradientUnits="userSpaceOnUse">
<stop stop-color="#962D1F"/>
<stop offset="1" stop-color="#9E3D14"/>
</linearGradient>
<clipPath id="clip0_237_8118">
<rect width="50" height="56" fill="white"/>
</clipPath>
</defs>
</svg>
